<?xml version="1.0" standalone="no"?>
<mlt LC_NUMERIC="C" version="7.30.0" title="Shotcut version 25.01.25" producer="main_bin">
  <profile description="automatic" width="500" height="500" progressive="1" sample_aspect_num="1" sample_aspect_den="1" display_aspect_num="1" display_aspect_den="1" frame_rate_num="60" frame_rate_den="1" colorspace="601"/>
  <chain id="chain0" out="00:03:13.833">
    <property name="length">00:03:13.850</property>
    <property name="eof">pause</property>
    <property name="resource">/home/ondrej/postdoc/grants/resources/tasks-for-grants/contextual-inference/assets/sound/soundtrack/8bit_game_music.mp3</property>
    <property name="mlt_service">avformat-novalidate</property>
    <property name="meta.media.nb_streams">2</property>
    <property name="meta.media.0.stream.type">audio</property>
    <property name="meta.media.0.codec.sample_fmt">fltp</property>
    <property name="meta.media.0.codec.sample_rate">44100</property>
    <property name="meta.media.0.codec.channels">2</property>
    <property name="meta.media.0.codec.layout">stereo</property>
    <property name="meta.media.0.codec.name">mp3float</property>
    <property name="meta.media.0.codec.long_name">MP3 (MPEG audio layer 3)</property>
    <property name="meta.media.0.codec.bit_rate">320000</property>
    <property name="meta.attr.0.stream.encoder.markup">LAME3.99r</property>
    <property name="meta.media.1.stream.type">video</property>
    <property name="meta.media.1.stream.frame_rate">90000</property>
    <property name="meta.media.1.stream.sample_aspect_ratio">0</property>
    <property name="meta.media.1.codec.width">500</property>
    <property name="meta.media.1.codec.height">500</property>
    <property name="meta.media.1.codec.rotate">0</property>
    <property name="meta.media.1.codec.pix_fmt">yuvj444p</property>
    <property name="meta.media.1.codec.sample_aspect_ratio">1</property>
    <property name="meta.media.1.codec.colorspace">601</property>
    <property name="meta.media.1.codec.name">mjpeg</property>
    <property name="meta.media.1.codec.long_name">MJPEG (Motion JPEG)</property>
    <property name="meta.media.1.codec.bit_rate">0</property>
    <property name="meta.attr.1.stream.comment.markup">Other</property>
    <property name="meta.attr.encoder.markup">LAME 64bits version 3.99.5 (http://lame.sf.net)</property>
    <property name="meta.attr.title.markup">Itty Bitty 8 Bit</property>
    <property name="meta.attr.artist.markup">Kevin MacLeod</property>
    <property name="meta.attr.TLEN.markup">193824</property>
    <property name="seekable">1</property>
    <property name="meta.media.sample_aspect_num">1</property>
    <property name="meta.media.sample_aspect_den">1</property>
    <property name="audio_index">0</property>
    <property name="video_index">1</property>
    <property name="creation_time">2025-01-07T17:46:55</property>
    <property name="vstream">0</property>
    <property name="meta.media.frame_rate_num">90000</property>
    <property name="meta.media.frame_rate_den">1</property>
    <property name="meta.media.colorspace">601</property>
    <property name="meta.media.color_trc">2</property>
    <property name="meta.media.has_b_frames">0</property>
    <property name="meta.media.width">500</property>
    <property name="meta.media.height">500</property>
    <property name="meta.media.aspect_ratio">1</property>
    <property name="meta.media.color_range">full</property>
    <property name="astream">0</property>
    <property name="shotcut:skipConvert">1</property>
    <property name="xml">was here</property>
    <property name="shotcut:hash">8cd98bba6d96e46c36ecb6c26c043d2b</property>
    <property name="meta.media.top_field_first">0</property>
    <property name="meta.media.progressive">1</property>
    <property name="ignore_points">1</property>
    <property name="shotcut:caption">8bit_game_music.mp3</property>
  </chain>
  <chain id="chain1" out="00:01:14.017">
    <property name="length">00:01:14.033</property>
    <property name="eof">pause</property>
    <property name="resource">/home/ondrej/postdoc/grants/resources/tasks-for-grants/contextual-inference/assets/sound/soundtrack/blue-sea-swoop-main-version-18177-01-14.mp3</property>
    <property name="mlt_service">avformat-novalidate</property>
    <property name="meta.media.nb_streams">2</property>
    <property name="meta.media.0.stream.type">audio</property>
    <property name="meta.media.0.codec.sample_fmt">fltp</property>
    <property name="meta.media.0.codec.sample_rate">44100</property>
    <property name="meta.media.0.codec.channels">2</property>
    <property name="meta.media.0.codec.layout">stereo</property>
    <property name="meta.media.0.codec.name">mp3float</property>
    <property name="meta.media.0.codec.long_name">MP3 (MPEG audio layer 3)</property>
    <property name="meta.media.0.codec.bit_rate">320000</property>
    <property name="meta.attr.0.stream.encoder.markup">LAME3.99r</property>
    <property name="meta.media.1.stream.type">video</property>
    <property name="meta.media.1.stream.frame_rate">90000</property>
    <property name="meta.media.1.stream.sample_aspect_ratio">0</property>
    <property name="meta.media.1.codec.width">500</property>
    <property name="meta.media.1.codec.height">500</property>
    <property name="meta.media.1.codec.rotate">0</property>
    <property name="meta.media.1.codec.pix_fmt">yuvj444p</property>
    <property name="meta.media.1.codec.sample_aspect_ratio">1</property>
    <property name="meta.media.1.codec.colorspace">601</property>
    <property name="meta.media.1.codec.name">mjpeg</property>
    <property name="meta.media.1.codec.long_name">MJPEG (Motion JPEG)</property>
    <property name="meta.media.1.codec.bit_rate">0</property>
    <property name="meta.attr.1.stream.comment.markup">Other</property>
    <property name="meta.attr.encoder.markup">LAME 64bits version 3.99.5 (http://lame.sf.net)</property>
    <property name="meta.attr.title.markup">Blue Sea</property>
    <property name="meta.attr.artist.markup">Swoop</property>
    <property name="meta.attr.TLEN.markup">74000</property>
    <property name="seekable">1</property>
    <property name="meta.media.sample_aspect_num">1</property>
    <property name="meta.media.sample_aspect_den">1</property>
    <property name="audio_index">0</property>
    <property name="video_index">1</property>
    <property name="creation_time">2025-02-06T09:19:20</property>
    <property name="vstream">0</property>
    <property name="meta.media.frame_rate_num">90000</property>
    <property name="meta.media.frame_rate_den">1</property>
    <property name="meta.media.colorspace">601</property>
    <property name="meta.media.color_trc">2</property>
    <property name="meta.media.has_b_frames">0</property>
    <property name="meta.media.width">500</property>
    <property name="meta.media.height">500</property>
    <property name="meta.media.aspect_ratio">1</property>
    <property name="meta.media.color_range">full</property>
    <property name="astream">0</property>
    <property name="shotcut:skipConvert">1</property>
    <property name="xml">was here</property>
    <property name="shotcut:hash">ff77fb2bd6640cae35a39e9ae3b2f4a3</property>
    <property name="meta.media.top_field_first">0</property>
    <property name="meta.media.progressive">1</property>
    <property name="ignore_points">1</property>
    <property name="shotcut:caption">blue-sea-swoop-main-version-18177-01-14.mp3</property>
  </chain>
  <chain id="chain2" out="00:14:43.083">
    <property name="length">00:14:43.100</property>
    <property name="eof">pause</property>
    <property name="resource">/home/ondrej/postdoc/grants/resources/tasks-for-grants/contextual-inference/assets/sound/soundtrack/chapter1_playlist.mp3</property>
    <property name="mlt_service">avformat-novalidate</property>
    <property name="meta.media.nb_streams">1</property>
    <property name="meta.media.0.stream.type">audio</property>
    <property name="meta.media.0.codec.sample_fmt">fltp</property>
    <property name="meta.media.0.codec.sample_rate">48000</property>
    <property name="meta.media.0.codec.channels">2</property>
    <property name="meta.media.0.codec.layout">stereo</property>
    <property name="meta.media.0.codec.name">mp3float</property>
    <property name="meta.media.0.codec.long_name">MP3 (MPEG audio layer 3)</property>
    <property name="meta.media.0.codec.bit_rate">256000</property>
    <property name="meta.attr.0.stream.encoder.markup">Lavf</property>
    <property name="meta.attr.encoder.markup">Lavf61.7.100</property>
    <property name="seekable">1</property>
    <property name="audio_index">0</property>
    <property name="video_index">-1</property>
    <property name="creation_time">2025-02-06T10:35:36</property>
    <property name="astream">0</property>
    <property name="shotcut:skipConvert">1</property>
    <property name="xml">was here</property>
    <property name="shotcut:hash">73859689bb047047ac3486bdbf537b17</property>
  </chain>
  <chain id="chain3" out="00:02:24.550">
    <property name="length">00:02:24.567</property>
    <property name="eof">pause</property>
    <property name="resource">/home/ondrej/postdoc/grants/resources/tasks-for-grants/contextual-inference/assets/sound/soundtrack/chase-the-sun-mark-july-main-version-18466-02-24.mp3</property>
    <property name="mlt_service">avformat-novalidate</property>
    <property name="meta.media.nb_streams">2</property>
    <property name="meta.media.0.stream.type">audio</property>
    <property name="meta.media.0.codec.sample_fmt">fltp</property>
    <property name="meta.media.0.codec.sample_rate">44100</property>
    <property name="meta.media.0.codec.channels">2</property>
    <property name="meta.media.0.codec.layout">stereo</property>
    <property name="meta.media.0.codec.name">mp3float</property>
    <property name="meta.media.0.codec.long_name">MP3 (MPEG audio layer 3)</property>
    <property name="meta.media.0.codec.bit_rate">320000</property>
    <property name="meta.attr.0.stream.encoder.markup">LAME3.99r</property>
    <property name="meta.media.1.stream.type">video</property>
    <property name="meta.media.1.stream.frame_rate">90000</property>
    <property name="meta.media.1.stream.sample_aspect_ratio">0</property>
    <property name="meta.media.1.codec.width">500</property>
    <property name="meta.media.1.codec.height">500</property>
    <property name="meta.media.1.codec.rotate">0</property>
    <property name="meta.media.1.codec.pix_fmt">yuvj420p</property>
    <property name="meta.media.1.codec.sample_aspect_ratio">1</property>
    <property name="meta.media.1.codec.colorspace">601</property>
    <property name="meta.media.1.codec.name">mjpeg</property>
    <property name="meta.media.1.codec.long_name">MJPEG (Motion JPEG)</property>
    <property name="meta.media.1.codec.bit_rate">0</property>
    <property name="meta.attr.1.stream.comment.markup">Other</property>
    <property name="meta.attr.encoder.markup">LAME 64bits version 3.99.5 (http://lame.sf.net)</property>
    <property name="meta.attr.title.markup">Chase The Sun</property>
    <property name="meta.attr.artist.markup">Mark July</property>
    <property name="meta.attr.TLEN.markup">144521</property>
    <property name="seekable">1</property>
    <property name="meta.media.sample_aspect_num">1</property>
    <property name="meta.media.sample_aspect_den">1</property>
    <property name="audio_index">0</property>
    <property name="video_index">1</property>
    <property name="creation_time">2025-02-06T09:21:36</property>
    <property name="vstream">0</property>
    <property name="meta.media.frame_rate_num">90000</property>
    <property name="meta.media.frame_rate_den">1</property>
    <property name="meta.media.colorspace">601</property>
    <property name="meta.media.color_trc">2</property>
    <property name="meta.media.has_b_frames">0</property>
    <property name="meta.media.width">500</property>
    <property name="meta.media.height">500</property>
    <property name="meta.media.aspect_ratio">1</property>
    <property name="meta.media.color_range">full</property>
    <property name="astream">0</property>
    <property name="shotcut:skipConvert">1</property>
    <property name="xml">was here</property>
    <property name="shotcut:hash">ca2c9766929d02bb5f07105fd9425cf9</property>
  </chain>
  <chain id="chain4" out="00:02:48.417">
    <property name="length">00:02:48.433</property>
    <property name="eof">pause</property>
    <property name="resource">/home/ondrej/postdoc/grants/resources/tasks-for-grants/contextual-inference/assets/sound/soundtrack/doom.mp3</property>
    <property name="mlt_service">avformat-novalidate</property>
    <property name="meta.media.nb_streams">2</property>
    <property name="meta.media.0.stream.type">audio</property>
    <property name="meta.media.0.codec.sample_fmt">fltp</property>
    <property name="meta.media.0.codec.sample_rate">44100</property>
    <property name="meta.media.0.codec.channels">2</property>
    <property name="meta.media.0.codec.layout">stereo</property>
    <property name="meta.media.0.codec.name">mp3float</property>
    <property name="meta.media.0.codec.long_name">MP3 (MPEG audio layer 3)</property>
    <property name="meta.media.0.codec.bit_rate">320000</property>
    <property name="meta.attr.0.stream.encoder.markup">LAME3.99r</property>
    <property name="meta.media.1.stream.type">video</property>
    <property name="meta.media.1.stream.frame_rate">90000</property>
    <property name="meta.media.1.stream.sample_aspect_ratio">0</property>
    <property name="meta.media.1.codec.width">500</property>
    <property name="meta.media.1.codec.height">500</property>
    <property name="meta.media.1.codec.rotate">0</property>
    <property name="meta.media.1.codec.pix_fmt">yuvj444p</property>
    <property name="meta.media.1.codec.sample_aspect_ratio">1</property>
    <property name="meta.media.1.codec.colorspace">601</property>
    <property name="meta.media.1.codec.name">mjpeg</property>
    <property name="meta.media.1.codec.long_name">MJPEG (Motion JPEG)</property>
    <property name="meta.media.1.codec.bit_rate">0</property>
    <property name="meta.attr.1.stream.comment.markup">Other</property>
    <property name="meta.attr.encoder.markup">LAME 64bits version 3.99.5 (http://lame.sf.net)</property>
    <property name="meta.attr.title.markup">Flesh</property>
    <property name="meta.attr.artist.markup">Soundroll</property>
    <property name="meta.attr.TLEN.markup">168387</property>
    <property name="seekable">1</property>
    <property name="meta.media.sample_aspect_num">1</property>
    <property name="meta.media.sample_aspect_den">1</property>
    <property name="audio_index">0</property>
    <property name="video_index">1</property>
    <property name="creation_time">2025-01-08T23:28:45</property>
    <property name="vstream">0</property>
    <property name="meta.media.frame_rate_num">90000</property>
    <property name="meta.media.frame_rate_den">1</property>
    <property name="meta.media.colorspace">601</property>
    <property name="meta.media.color_trc">2</property>
    <property name="meta.media.has_b_frames">0</property>
    <property name="meta.media.width">500</property>
    <property name="meta.media.height">500</property>
    <property name="meta.media.aspect_ratio">1</property>
    <property name="meta.media.color_range">full</property>
    <property name="astream">0</property>
    <property name="shotcut:skipConvert">1</property>
    <property name="xml">was here</property>
    <property name="shotcut:hash">e2cc985deb26a65666371054843ac07c</property>
  </chain>
  <chain id="chain5" out="00:01:45.700">
    <property name="length">00:01:45.717</property>
    <property name="eof">pause</property>
    <property name="resource">/home/ondrej/postdoc/grants/resources/tasks-for-grants/contextual-inference/assets/sound/soundtrack/engine-qube-main-version-16248-01-45.mp3</property>
    <property name="mlt_service">avformat-novalidate</property>
    <property name="meta.media.nb_streams">2</property>
    <property name="meta.media.0.stream.type">audio</property>
    <property name="meta.media.0.codec.sample_fmt">fltp</property>
    <property name="meta.media.0.codec.sample_rate">44100</property>
    <property name="meta.media.0.codec.channels">2</property>
    <property name="meta.media.0.codec.layout">stereo</property>
    <property name="meta.media.0.codec.name">mp3float</property>
    <property name="meta.media.0.codec.long_name">MP3 (MPEG audio layer 3)</property>
    <property name="meta.media.0.codec.bit_rate">320000</property>
    <property name="meta.attr.0.stream.encoder.markup">LAME3.99r</property>
    <property name="meta.media.1.stream.type">video</property>
    <property name="meta.media.1.stream.frame_rate">90000</property>
    <property name="meta.media.1.stream.sample_aspect_ratio">0</property>
    <property name="meta.media.1.codec.width">500</property>
    <property name="meta.media.1.codec.height">500</property>
    <property name="meta.media.1.codec.rotate">0</property>
    <property name="meta.media.1.codec.pix_fmt">yuvj444p</property>
    <property name="meta.media.1.codec.sample_aspect_ratio">1</property>
    <property name="meta.media.1.codec.colorspace">601</property>
    <property name="meta.media.1.codec.name">mjpeg</property>
    <property name="meta.media.1.codec.long_name">MJPEG (Motion JPEG)</property>
    <property name="meta.media.1.codec.bit_rate">0</property>
    <property name="meta.attr.1.stream.comment.markup">Other</property>
    <property name="meta.attr.encoder.markup">LAME 64bits version 3.99.5 (http://lame.sf.net)</property>
    <property name="meta.attr.title.markup">Engine</property>
    <property name="meta.attr.artist.markup">Qube</property>
    <property name="meta.attr.TLEN.markup">105681</property>
    <property name="seekable">1</property>
    <property name="meta.media.sample_aspect_num">1</property>
    <property name="meta.media.sample_aspect_den">1</property>
    <property name="audio_index">0</property>
    <property name="video_index">1</property>
    <property name="creation_time">2025-02-06T09:22:35</property>
    <property name="vstream">0</property>
    <property name="meta.media.frame_rate_num">90000</property>
    <property name="meta.media.frame_rate_den">1</property>
    <property name="meta.media.colorspace">601</property>
    <property name="meta.media.color_trc">2</property>
    <property name="meta.media.has_b_frames">0</property>
    <property name="meta.media.width">500</property>
    <property name="meta.media.height">500</property>
    <property name="meta.media.aspect_ratio">1</property>
    <property name="meta.media.color_range">full</property>
    <property name="astream">0</property>
    <property name="shotcut:skipConvert">1</property>
    <property name="xml">was here</property>
    <property name="shotcut:hash">14cd2f427b8d7b72226bfbd867ff597e</property>
  </chain>
  <chain id="chain6" out="00:02:17.050">
    <property name="length">00:02:17.067</property>
    <property name="eof">pause</property>
    <property name="resource">/home/ondrej/postdoc/grants/resources/tasks-for-grants/contextual-inference/assets/sound/soundtrack/eureka-roo-walker-main-version-02-17-11129.mp3</property>
    <property name="mlt_service">avformat-novalidate</property>
    <property name="meta.media.nb_streams">2</property>
    <property name="meta.media.0.stream.type">audio</property>
    <property name="meta.media.0.codec.sample_fmt">fltp</property>
    <property name="meta.media.0.codec.sample_rate">44100</property>
    <property name="meta.media.0.codec.channels">2</property>
    <property name="meta.media.0.codec.layout">stereo</property>
    <property name="meta.media.0.codec.name">mp3float</property>
    <property name="meta.media.0.codec.long_name">MP3 (MPEG audio layer 3)</property>
    <property name="meta.media.0.codec.bit_rate">320000</property>
    <property name="meta.attr.0.stream.encoder.markup">LAME3.99r</property>
    <property name="meta.media.1.stream.type">video</property>
    <property name="meta.media.1.stream.frame_rate">90000</property>
    <property name="meta.media.1.stream.sample_aspect_ratio">0</property>
    <property name="meta.media.1.codec.width">400</property>
    <property name="meta.media.1.codec.height">400</property>
    <property name="meta.media.1.codec.rotate">0</property>
    <property name="meta.media.1.codec.pix_fmt">yuvj444p</property>
    <property name="meta.media.1.codec.sample_aspect_ratio">0</property>
    <property name="meta.media.1.codec.colorspace">601</property>
    <property name="meta.media.1.codec.name">mjpeg</property>
    <property name="meta.media.1.codec.long_name">MJPEG (Motion JPEG)</property>
    <property name="meta.media.1.codec.bit_rate">0</property>
    <property name="meta.attr.1.stream.comment.markup">Other</property>
    <property name="meta.attr.encoder.markup">LAME 64bits version 3.99.5 (http://lame.sf.net)</property>
    <property name="meta.attr.title.markup">Eureka!</property>
    <property name="meta.attr.artist.markup">Roo Walker</property>
    <property name="meta.attr.album.markup">Uppbeat</property>
    <property name="meta.attr.TLEN.markup">137030</property>
    <property name="seekable">1</property>
    <property name="meta.media.sample_aspect_num">1</property>
    <property name="meta.media.sample_aspect_den">1</property>
    <property name="audio_index">0</property>
    <property name="video_index">1</property>
    <property name="creation_time">2025-02-06T09:20:18</property>
    <property name="vstream">0</property>
    <property name="meta.media.frame_rate_num">90000</property>
    <property name="meta.media.frame_rate_den">1</property>
    <property name="meta.media.colorspace">601</property>
    <property name="meta.media.color_trc">2</property>
    <property name="meta.media.has_b_frames">0</property>
    <property name="meta.media.width">400</property>
    <property name="meta.media.height">400</property>
    <property name="meta.media.aspect_ratio">1</property>
    <property name="meta.media.color_range">full</property>
    <property name="astream">0</property>
    <property name="shotcut:skipConvert">1</property>
    <property name="xml">was here</property>
    <property name="shotcut:hash">62d486074da3fd942e92fbb74396f56e</property>
  </chain>
  <chain id="chain7" out="00:01:53.567">
    <property name="length">00:01:53.583</property>
    <property name="eof">pause</property>
    <property name="resource">/home/ondrej/postdoc/grants/resources/tasks-for-grants/contextual-inference/assets/sound/soundtrack/floating_cat.mp3</property>
    <property name="mlt_service">avformat-novalidate</property>
    <property name="meta.media.nb_streams">2</property>
    <property name="meta.media.0.stream.type">audio</property>
    <property name="meta.media.0.codec.sample_fmt">fltp</property>
    <property name="meta.media.0.codec.sample_rate">44100</property>
    <property name="meta.media.0.codec.channels">2</property>
    <property name="meta.media.0.codec.layout">stereo</property>
    <property name="meta.media.0.codec.name">mp3float</property>
    <property name="meta.media.0.codec.long_name">MP3 (MPEG audio layer 3)</property>
    <property name="meta.media.0.codec.bit_rate">320000</property>
    <property name="meta.attr.0.stream.encoder.markup">LAME3.99r</property>
    <property name="meta.media.1.stream.type">video</property>
    <property name="meta.media.1.stream.frame_rate">90000</property>
    <property name="meta.media.1.stream.sample_aspect_ratio">0</property>
    <property name="meta.media.1.codec.width">500</property>
    <property name="meta.media.1.codec.height">500</property>
    <property name="meta.media.1.codec.rotate">0</property>
    <property name="meta.media.1.codec.pix_fmt">yuvj444p</property>
    <property name="meta.media.1.codec.sample_aspect_ratio">0</property>
    <property name="meta.media.1.codec.colorspace">601</property>
    <property name="meta.media.1.codec.name">mjpeg</property>
    <property name="meta.media.1.codec.long_name">MJPEG (Motion JPEG)</property>
    <property name="meta.media.1.codec.bit_rate">0</property>
    <property name="meta.attr.1.stream.comment.markup">Other</property>
    <property name="meta.attr.encoder.markup">LAME 64bits version 3.99.5 (http://lame.sf.net)</property>
    <property name="meta.attr.title.markup">Floating Cat</property>
    <property name="meta.attr.artist.markup">Michael Grubb</property>
    <property name="meta.attr.TLEN.markup">113538</property>
    <property name="seekable">1</property>
    <property name="meta.media.sample_aspect_num">1</property>
    <property name="meta.media.sample_aspect_den">1</property>
    <property name="audio_index">0</property>
    <property name="video_index">1</property>
    <property name="creation_time">2025-01-07T17:40:10</property>
    <property name="vstream">0</property>
    <property name="meta.media.frame_rate_num">90000</property>
    <property name="meta.media.frame_rate_den">1</property>
    <property name="meta.media.colorspace">601</property>
    <property name="meta.media.color_trc">2</property>
    <property name="meta.media.has_b_frames">0</property>
    <property name="meta.media.width">500</property>
    <property name="meta.media.height">500</property>
    <property name="meta.media.aspect_ratio">1</property>
    <property name="meta.media.color_range">full</property>
    <property name="astream">0</property>
    <property name="shotcut:skipConvert">1</property>
    <property name="xml">was here</property>
    <property name="shotcut:hash">a754806dd2915929fd08e1d6e2374060</property>
    <property name="meta.media.top_field_first">0</property>
    <property name="meta.media.progressive">1</property>
    <property name="ignore_points">1</property>
    <property name="shotcut:caption">floating_cat.mp3</property>
  </chain>
  <chain id="chain8" out="00:01:59.517">
    <property name="length">00:01:59.533</property>
    <property name="eof">pause</property>
    <property name="resource">/home/ondrej/postdoc/grants/resources/tasks-for-grants/contextual-inference/assets/sound/soundtrack/game_music1.mp3</property>
    <property name="mlt_service">avformat-novalidate</property>
    <property name="meta.media.nb_streams">2</property>
    <property name="meta.media.0.stream.type">audio</property>
    <property name="meta.media.0.codec.sample_fmt">fltp</property>
    <property name="meta.media.0.codec.sample_rate">44100</property>
    <property name="meta.media.0.codec.channels">2</property>
    <property name="meta.media.0.codec.layout">stereo</property>
    <property name="meta.media.0.codec.name">mp3float</property>
    <property name="meta.media.0.codec.long_name">MP3 (MPEG audio layer 3)</property>
    <property name="meta.media.0.codec.bit_rate">320000</property>
    <property name="meta.attr.0.stream.encoder.markup">LAME3.99r</property>
    <property name="meta.media.1.stream.type">video</property>
    <property name="meta.media.1.stream.frame_rate">90000</property>
    <property name="meta.media.1.stream.sample_aspect_ratio">0</property>
    <property name="meta.media.1.codec.width">180</property>
    <property name="meta.media.1.codec.height">180</property>
    <property name="meta.media.1.codec.rotate">0</property>
    <property name="meta.media.1.codec.pix_fmt">yuvj444p</property>
    <property name="meta.media.1.codec.sample_aspect_ratio">0</property>
    <property name="meta.media.1.codec.colorspace">601</property>
    <property name="meta.media.1.codec.name">mjpeg</property>
    <property name="meta.media.1.codec.long_name">MJPEG (Motion JPEG)</property>
    <property name="meta.media.1.codec.bit_rate">0</property>
    <property name="meta.attr.1.stream.comment.markup">Other</property>
    <property name="meta.attr.encoder.markup">LAME 64bits version 3.99.5 (http://lame.sf.net)</property>
    <property name="meta.attr.title.markup">Trap</property>
    <property name="meta.attr.artist.markup">Danijel Zambo</property>
    <property name="meta.attr.TLEN.markup">119507</property>
    <property name="seekable">1</property>
    <property name="meta.media.sample_aspect_num">1</property>
    <property name="meta.media.sample_aspect_den">1</property>
    <property name="audio_index">0</property>
    <property name="video_index">1</property>
    <property name="creation_time">2025-01-07T17:45:10</property>
    <property name="vstream">0</property>
    <property name="meta.media.frame_rate_num">90000</property>
    <property name="meta.media.frame_rate_den">1</property>
    <property name="meta.media.colorspace">601</property>
    <property name="meta.media.color_trc">2</property>
    <property name="meta.media.has_b_frames">0</property>
    <property name="meta.media.width">180</property>
    <property name="meta.media.height">180</property>
    <property name="meta.media.aspect_ratio">1</property>
    <property name="meta.media.color_range">full</property>
    <property name="astream">0</property>
    <property name="shotcut:skipConvert">1</property>
    <property name="xml">was here</property>
    <property name="shotcut:hash">e5d10ebbfef748dcbbb178256d1f158e</property>
    <property name="meta.media.top_field_first">0</property>
    <property name="meta.media.progressive">1</property>
    <property name="ignore_points">1</property>
    <property name="shotcut:caption">game_music1.mp3</property>
  </chain>
  <chain id="chain9" out="00:02:12.300">
    <property name="length">00:02:12.317</property>
    <property name="eof">pause</property>
    <property name="resource">/home/ondrej/postdoc/grants/resources/tasks-for-grants/contextual-inference/assets/sound/soundtrack/game_music2.mp3</property>
    <property name="mlt_service">avformat-novalidate</property>
    <property name="meta.media.nb_streams">2</property>
    <property name="meta.media.0.stream.type">audio</property>
    <property name="meta.media.0.codec.sample_fmt">fltp</property>
    <property name="meta.media.0.codec.sample_rate">44100</property>
    <property name="meta.media.0.codec.channels">2</property>
    <property name="meta.media.0.codec.layout">stereo</property>
    <property name="meta.media.0.codec.name">mp3float</property>
    <property name="meta.media.0.codec.long_name">MP3 (MPEG audio layer 3)</property>
    <property name="meta.media.0.codec.bit_rate">320000</property>
    <property name="meta.attr.0.stream.encoder.markup">LAME3.99r</property>
    <property name="meta.media.1.stream.type">video</property>
    <property name="meta.media.1.stream.frame_rate">90000</property>
    <property name="meta.media.1.stream.sample_aspect_ratio">0</property>
    <property name="meta.media.1.codec.width">500</property>
    <property name="meta.media.1.codec.height">500</property>
    <property name="meta.media.1.codec.rotate">0</property>
    <property name="meta.media.1.codec.pix_fmt">yuvj444p</property>
    <property name="meta.media.1.codec.sample_aspect_ratio">1</property>
    <property name="meta.media.1.codec.colorspace">601</property>
    <property name="meta.media.1.codec.name">mjpeg</property>
    <property name="meta.media.1.codec.long_name">MJPEG (Motion JPEG)</property>
    <property name="meta.media.1.codec.bit_rate">0</property>
    <property name="meta.attr.1.stream.comment.markup">Other</property>
    <property name="meta.attr.encoder.markup">LAME 64bits version 3.99.5 (http://lame.sf.net)</property>
    <property name="meta.attr.title.markup">Pistol Swing</property>
    <property name="meta.attr.artist.markup">Soundroll</property>
    <property name="meta.attr.TLEN.markup">132260</property>
    <property name="seekable">1</property>
    <property name="meta.media.sample_aspect_num">1</property>
    <property name="meta.media.sample_aspect_den">1</property>
    <property name="audio_index">0</property>
    <property name="video_index">1</property>
    <property name="creation_time">2025-01-07T17:45:52</property>
    <property name="vstream">0</property>
    <property name="meta.media.frame_rate_num">90000</property>
    <property name="meta.media.frame_rate_den">1</property>
    <property name="meta.media.colorspace">601</property>
    <property name="meta.media.color_trc">2</property>
    <property name="meta.media.has_b_frames">0</property>
    <property name="meta.media.width">500</property>
    <property name="meta.media.height">500</property>
    <property name="meta.media.aspect_ratio">1</property>
    <property name="meta.media.color_range">full</property>
    <property name="astream">0</property>
    <property name="shotcut:skipConvert">1</property>
    <property name="xml">was here</property>
    <property name="shotcut:hash">5cb4c514167f24a214b7e59e8bdf2638</property>
    <property name="meta.media.top_field_first">0</property>
    <property name="meta.media.progressive">1</property>
    <property name="ignore_points">1</property>
    <property name="shotcut:caption">game_music2.mp3</property>
  </chain>
  <chain id="chain10" out="00:02:54.267">
    <property name="length">00:02:54.283</property>
    <property name="eof">pause</property>
    <property name="resource">/home/ondrej/postdoc/grants/resources/tasks-for-grants/contextual-inference/assets/sound/soundtrack/game_music3.mp3</property>
    <property name="mlt_service">avformat-novalidate</property>
    <property name="meta.media.nb_streams">2</property>
    <property name="meta.media.0.stream.type">audio</property>
    <property name="meta.media.0.codec.sample_fmt">fltp</property>
    <property name="meta.media.0.codec.sample_rate">44100</property>
    <property name="meta.media.0.codec.channels">2</property>
    <property name="meta.media.0.codec.layout">stereo</property>
    <property name="meta.media.0.codec.name">mp3float</property>
    <property name="meta.media.0.codec.long_name">MP3 (MPEG audio layer 3)</property>
    <property name="meta.media.0.codec.bit_rate">320000</property>
    <property name="meta.attr.0.stream.encoder.markup">LAME3.99r</property>
    <property name="meta.media.1.stream.type">video</property>
    <property name="meta.media.1.stream.frame_rate">90000</property>
    <property name="meta.media.1.stream.sample_aspect_ratio">0</property>
    <property name="meta.media.1.codec.width">360</property>
    <property name="meta.media.1.codec.height">360</property>
    <property name="meta.media.1.codec.rotate">0</property>
    <property name="meta.media.1.codec.pix_fmt">yuvj444p</property>
    <property name="meta.media.1.codec.sample_aspect_ratio">0</property>
    <property name="meta.media.1.codec.colorspace">601</property>
    <property name="meta.media.1.codec.name">mjpeg</property>
    <property name="meta.media.1.codec.long_name">MJPEG (Motion JPEG)</property>
    <property name="meta.media.1.codec.bit_rate">0</property>
    <property name="meta.attr.1.stream.comment.markup">Other</property>
    <property name="meta.attr.encoder.markup">LAME 64bits version 3.99.5 (http://lame.sf.net)</property>
    <property name="meta.attr.title.markup">Road Trip</property>
    <property name="meta.attr.artist.markup">Yeti Music</property>
    <property name="meta.attr.album.markup">Uppbeat</property>
    <property name="meta.attr.TLEN.markup">174242</property>
    <property name="seekable">1</property>
    <property name="meta.media.sample_aspect_num">1</property>
    <property name="meta.media.sample_aspect_den">1</property>
    <property name="audio_index">0</property>
    <property name="video_index">1</property>
    <property name="creation_time">2025-01-07T17:47:43</property>
    <property name="vstream">0</property>
    <property name="meta.media.frame_rate_num">90000</property>
    <property name="meta.media.frame_rate_den">1</property>
    <property name="meta.media.colorspace">601</property>
    <property name="meta.media.color_trc">2</property>
    <property name="meta.media.has_b_frames">0</property>
    <property name="meta.media.width">360</property>
    <property name="meta.media.height">360</property>
    <property name="meta.media.aspect_ratio">1</property>
    <property name="meta.media.color_range">full</property>
    <property name="astream">0</property>
    <property name="shotcut:skipConvert">1</property>
    <property name="xml">was here</property>
    <property name="shotcut:hash">cf0c9e2a99de1596af73fcadd3cc76ac</property>
    <property name="meta.media.top_field_first">0</property>
    <property name="meta.media.progressive">1</property>
    <property name="ignore_points">1</property>
    <property name="shotcut:caption">game_music3.mp3</property>
  </chain>
  <chain id="chain11" out="00:03:27.550">
    <property name="length">00:03:27.567</property>
    <property name="eof">pause</property>
    <property name="resource">/home/ondrej/postdoc/grants/resources/tasks-for-grants/contextual-inference/assets/sound/soundtrack/game_music4.mp3</property>
    <property name="mlt_service">avformat-novalidate</property>
    <property name="meta.media.nb_streams">2</property>
    <property name="meta.media.0.stream.type">audio</property>
    <property name="meta.media.0.codec.sample_fmt">fltp</property>
    <property name="meta.media.0.codec.sample_rate">44100</property>
    <property name="meta.media.0.codec.channels">2</property>
    <property name="meta.media.0.codec.layout">stereo</property>
    <property name="meta.media.0.codec.name">mp3float</property>
    <property name="meta.media.0.codec.long_name">MP3 (MPEG audio layer 3)</property>
    <property name="meta.media.0.codec.bit_rate">320000</property>
    <property name="meta.attr.0.stream.encoder.markup">LAME3.99r</property>
    <property name="meta.media.1.stream.type">video</property>
    <property name="meta.media.1.stream.frame_rate">90000</property>
    <property name="meta.media.1.stream.sample_aspect_ratio">0</property>
    <property name="meta.media.1.codec.width">500</property>
    <property name="meta.media.1.codec.height">500</property>
    <property name="meta.media.1.codec.rotate">0</property>
    <property name="meta.media.1.codec.pix_fmt">yuvj444p</property>
    <property name="meta.media.1.codec.sample_aspect_ratio">0</property>
    <property name="meta.media.1.codec.colorspace">601</property>
    <property name="meta.media.1.codec.name">mjpeg</property>
    <property name="meta.media.1.codec.long_name">MJPEG (Motion JPEG)</property>
    <property name="meta.media.1.codec.bit_rate">0</property>
    <property name="meta.attr.1.stream.comment.markup">Other</property>
    <property name="meta.attr.encoder.markup">LAME 64bits version 3.99.5 (http://lame.sf.net)</property>
    <property name="meta.attr.title.markup">Miami 1987</property>
    <property name="meta.attr.artist.markup">Hey Pluto!</property>
    <property name="meta.attr.TLEN.markup">207529</property>
    <property name="seekable">1</property>
    <property name="meta.media.sample_aspect_num">1</property>
    <property name="meta.media.sample_aspect_den">1</property>
    <property name="audio_index">0</property>
    <property name="video_index">1</property>
    <property name="creation_time">2025-01-07T17:49:17</property>
    <property name="vstream">0</property>
    <property name="meta.media.frame_rate_num">90000</property>
    <property name="meta.media.frame_rate_den">1</property>
    <property name="meta.media.colorspace">601</property>
    <property name="meta.media.color_trc">2</property>
    <property name="meta.media.has_b_frames">0</property>
    <property name="meta.media.width">500</property>
    <property name="meta.media.height">500</property>
    <property name="meta.media.aspect_ratio">1</property>
    <property name="meta.media.color_range">full</property>
    <property name="astream">0</property>
    <property name="shotcut:skipConvert">1</property>
    <property name="xml">was here</property>
    <property name="shotcut:hash">ebef906061e9feb5fbdb68c0ebedb486</property>
    <property name="meta.media.top_field_first">0</property>
    <property name="meta.media.progressive">1</property>
    <property name="ignore_points">1</property>
    <property name="shotcut:caption">game_music4.mp3</property>
  </chain>
  <chain id="chain12" out="00:02:22.267">
    <property name="length">00:02:22.283</property>
    <property name="eof">pause</property>
    <property name="resource">/home/ondrej/postdoc/grants/resources/tasks-for-grants/contextual-inference/assets/sound/soundtrack/game_music5.mp3</property>
    <property name="mlt_service">avformat-novalidate</property>
    <property name="meta.media.nb_streams">2</property>
    <property name="meta.media.0.stream.type">audio</property>
    <property name="meta.media.0.codec.sample_fmt">fltp</property>
    <property name="meta.media.0.codec.sample_rate">44100</property>
    <property name="meta.media.0.codec.channels">2</property>
    <property name="meta.media.0.codec.layout">stereo</property>
    <property name="meta.media.0.codec.name">mp3float</property>
    <property name="meta.media.0.codec.long_name">MP3 (MPEG audio layer 3)</property>
    <property name="meta.media.0.codec.bit_rate">320000</property>
    <property name="meta.attr.0.stream.encoder.markup">LAME3.99r</property>
    <property name="meta.media.1.stream.type">video</property>
    <property name="meta.media.1.stream.frame_rate">90000</property>
    <property name="meta.media.1.stream.sample_aspect_ratio">0</property>
    <property name="meta.media.1.codec.width">400</property>
    <property name="meta.media.1.codec.height">400</property>
    <property name="meta.media.1.codec.rotate">0</property>
    <property name="meta.media.1.codec.pix_fmt">yuvj444p</property>
    <property name="meta.media.1.codec.sample_aspect_ratio">0</property>
    <property name="meta.media.1.codec.colorspace">601</property>
    <property name="meta.media.1.codec.name">mjpeg</property>
    <property name="meta.media.1.codec.long_name">MJPEG (Motion JPEG)</property>
    <property name="meta.media.1.codec.bit_rate">0</property>
    <property name="meta.attr.1.stream.comment.markup">Other</property>
    <property name="meta.attr.encoder.markup">LAME 64bits version 3.99.5 (http://lame.sf.net)</property>
    <property name="meta.attr.title.markup">Octopus Dance</property>
    <property name="meta.attr.artist.markup">Giulio Fazio</property>
    <property name="meta.attr.TLEN.markup">142258</property>
    <property name="seekable">1</property>
    <property name="meta.media.sample_aspect_num">1</property>
    <property name="meta.media.sample_aspect_den">1</property>
    <property name="audio_index">0</property>
    <property name="video_index">1</property>
    <property name="creation_time">2025-01-16T22:03:39</property>
    <property name="vstream">0</property>
    <property name="meta.media.frame_rate_num">90000</property>
    <property name="meta.media.frame_rate_den">1</property>
    <property name="meta.media.colorspace">601</property>
    <property name="meta.media.color_trc">2</property>
    <property name="meta.media.has_b_frames">0</property>
    <property name="meta.media.width">400</property>
    <property name="meta.media.height">400</property>
    <property name="meta.media.aspect_ratio">1</property>
    <property name="meta.media.color_range">full</property>
    <property name="astream">0</property>
    <property name="shotcut:skipConvert">1</property>
    <property name="xml">was here</property>
    <property name="shotcut:hash">f07cb58674a081e5d525909b0f401930</property>
    <property name="meta.media.top_field_first">0</property>
    <property name="meta.media.progressive">1</property>
    <property name="ignore_points">1</property>
    <property name="shotcut:caption">game_music5.mp3</property>
  </chain>
  <chain id="chain13" out="00:03:04.950">
    <property name="length">00:03:04.967</property>
    <property name="eof">pause</property>
    <property name="resource">/home/ondrej/postdoc/grants/resources/tasks-for-grants/contextual-inference/assets/sound/soundtrack/game_music6.mp3</property>
    <property name="mlt_service">avformat-novalidate</property>
    <property name="meta.media.nb_streams">2</property>
    <property name="meta.media.0.stream.type">audio</property>
    <property name="meta.media.0.codec.sample_fmt">fltp</property>
    <property name="meta.media.0.codec.sample_rate">44100</property>
    <property name="meta.media.0.codec.channels">2</property>
    <property name="meta.media.0.codec.layout">stereo</property>
    <property name="meta.media.0.codec.name">mp3float</property>
    <property name="meta.media.0.codec.long_name">MP3 (MPEG audio layer 3)</property>
    <property name="meta.media.0.codec.bit_rate">320000</property>
    <property name="meta.attr.0.stream.encoder.markup">LAME3.99r</property>
    <property name="meta.media.1.stream.type">video</property>
    <property name="meta.media.1.stream.frame_rate">90000</property>
    <property name="meta.media.1.stream.sample_aspect_ratio">0</property>
    <property name="meta.media.1.codec.width">270</property>
    <property name="meta.media.1.codec.height">270</property>
    <property name="meta.media.1.codec.rotate">0</property>
    <property name="meta.media.1.codec.pix_fmt">yuvj444p</property>
    <property name="meta.media.1.codec.sample_aspect_ratio">1</property>
    <property name="meta.media.1.codec.colorspace">601</property>
    <property name="meta.media.1.codec.name">mjpeg</property>
    <property name="meta.media.1.codec.long_name">MJPEG (Motion JPEG)</property>
    <property name="meta.media.1.codec.bit_rate">0</property>
    <property name="meta.attr.1.stream.comment.markup">Other</property>
    <property name="meta.attr.encoder.markup">LAME 64bits version 3.99.5 (http://lame.sf.net)</property>
    <property name="meta.attr.title.markup">Overdrive</property>
    <property name="meta.attr.artist.markup">Matrika</property>
    <property name="meta.attr.album.markup">Uppbeat</property>
    <property name="meta.attr.TLEN.markup">184923</property>
    <property name="seekable">1</property>
    <property name="meta.media.sample_aspect_num">72</property>
    <property name="meta.media.sample_aspect_den">72</property>
    <property name="audio_index">0</property>
    <property name="video_index">1</property>
    <property name="creation_time">2025-01-16T22:07:19</property>
    <property name="vstream">0</property>
    <property name="meta.media.frame_rate_num">90000</property>
    <property name="meta.media.frame_rate_den">1</property>
    <property name="meta.media.colorspace">601</property>
    <property name="meta.media.color_trc">2</property>
    <property name="meta.media.has_b_frames">0</property>
    <property name="meta.media.width">270</property>
    <property name="meta.media.height">270</property>
    <property name="meta.media.aspect_ratio">1</property>
    <property name="meta.media.color_range">full</property>
    <property name="astream">0</property>
    <property name="shotcut:skipConvert">1</property>
    <property name="xml">was here</property>
    <property name="shotcut:hash">a8d44ff83bcee4205de2f9be9f3dc047</property>
    <property name="meta.media.top_field_first">0</property>
    <property name="meta.media.progressive">1</property>
    <property name="ignore_points">1</property>
    <property name="shotcut:caption">game_music6.mp3</property>
  </chain>
  <chain id="chain14" out="00:04:53.150">
    <property name="length">00:04:53.167</property>
    <property name="eof">pause</property>
    <property name="resource">/home/ondrej/postdoc/grants/resources/tasks-for-grants/contextual-inference/assets/sound/soundtrack/game_music7.mp3</property>
    <property name="mlt_service">avformat-novalidate</property>
    <property name="meta.media.nb_streams">2</property>
    <property name="meta.media.0.stream.type">audio</property>
    <property name="meta.media.0.codec.sample_fmt">fltp</property>
    <property name="meta.media.0.codec.sample_rate">44100</property>
    <property name="meta.media.0.codec.channels">2</property>
    <property name="meta.media.0.codec.layout">stereo</property>
    <property name="meta.media.0.codec.name">mp3float</property>
    <property name="meta.media.0.codec.long_name">MP3 (MPEG audio layer 3)</property>
    <property name="meta.media.0.codec.bit_rate">320000</property>
    <property name="meta.attr.0.stream.encoder.markup">LAME3.99r</property>
    <property name="meta.media.1.stream.type">video</property>
    <property name="meta.media.1.stream.frame_rate">90000</property>
    <property name="meta.media.1.stream.sample_aspect_ratio">0</property>
    <property name="meta.media.1.codec.width">500</property>
    <property name="meta.media.1.codec.height">500</property>
    <property name="meta.media.1.codec.rotate">0</property>
    <property name="meta.media.1.codec.pix_fmt">yuvj444p</property>
    <property name="meta.media.1.codec.sample_aspect_ratio">1</property>
    <property name="meta.media.1.codec.colorspace">601</property>
    <property name="meta.media.1.codec.name">mjpeg</property>
    <property name="meta.media.1.codec.long_name">MJPEG (Motion JPEG)</property>
    <property name="meta.media.1.codec.bit_rate">0</property>
    <property name="meta.attr.1.stream.comment.markup">Other</property>
    <property name="meta.attr.encoder.markup">LAME 64bits version 3.99.5 (http://lame.sf.net)</property>
    <property name="meta.attr.title.markup">Solar Storm</property>
    <property name="meta.attr.artist.markup">HLFMN</property>
    <property name="meta.attr.TLEN.markup">293124</property>
    <property name="seekable">1</property>
    <property name="meta.media.sample_aspect_num">1</property>
    <property name="meta.media.sample_aspect_den">1</property>
    <property name="audio_index">0</property>
    <property name="video_index">1</property>
    <property name="creation_time">2025-01-16T22:10:50</property>
    <property name="vstream">0</property>
    <property name="meta.media.frame_rate_num">90000</property>
    <property name="meta.media.frame_rate_den">1</property>
    <property name="meta.media.colorspace">601</property>
    <property name="meta.media.color_trc">2</property>
    <property name="meta.media.has_b_frames">0</property>
    <property name="meta.media.width">500</property>
    <property name="meta.media.height">500</property>
    <property name="meta.media.aspect_ratio">1</property>
    <property name="meta.media.color_range">full</property>
    <property name="astream">0</property>
    <property name="shotcut:skipConvert">1</property>
    <property name="xml">was here</property>
    <property name="shotcut:hash">51553537f59c3efa86b280a3fda1130d</property>
    <property name="meta.media.top_field_first">0</property>
    <property name="meta.media.progressive">1</property>
    <property name="ignore_points">1</property>
    <property name="shotcut:caption">game_music7.mp3</property>
  </chain>
  <chain id="chain15" out="00:02:19.133">
    <property name="length">00:02:19.150</property>
    <property name="eof">pause</property>
    <property name="resource">/home/ondrej/postdoc/grants/resources/tasks-for-grants/contextual-inference/assets/sound/soundtrack/hot-tubes-abbynoise-main-version-20989-02-19.mp3</property>
    <property name="mlt_service">avformat-novalidate</property>
    <property name="meta.media.nb_streams">2</property>
    <property name="meta.media.0.stream.type">audio</property>
    <property name="meta.media.0.codec.sample_fmt">fltp</property>
    <property name="meta.media.0.codec.sample_rate">44100</property>
    <property name="meta.media.0.codec.channels">2</property>
    <property name="meta.media.0.codec.layout">stereo</property>
    <property name="meta.media.0.codec.name">mp3float</property>
    <property name="meta.media.0.codec.long_name">MP3 (MPEG audio layer 3)</property>
    <property name="meta.media.0.codec.bit_rate">320000</property>
    <property name="meta.attr.0.stream.encoder.markup">LAME3.99r</property>
    <property name="meta.media.1.stream.type">video</property>
    <property name="meta.media.1.stream.frame_rate">90000</property>
    <property name="meta.media.1.stream.sample_aspect_ratio">0</property>
    <property name="meta.media.1.codec.width">400</property>
    <property name="meta.media.1.codec.height">400</property>
    <property name="meta.media.1.codec.rotate">0</property>
    <property name="meta.media.1.codec.pix_fmt">yuvj444p</property>
    <property name="meta.media.1.codec.sample_aspect_ratio">0</property>
    <property name="meta.media.1.codec.colorspace">601</property>
    <property name="meta.media.1.codec.name">mjpeg</property>
    <property name="meta.media.1.codec.long_name">MJPEG (Motion JPEG)</property>
    <property name="meta.media.1.codec.bit_rate">0</property>
    <property name="meta.attr.1.stream.comment.markup">Other</property>
    <property name="meta.attr.encoder.markup">LAME 64bits version 3.99.5 (http://lame.sf.net)</property>
    <property name="meta.attr.title.markup">Hot Tubes</property>
    <property name="meta.attr.artist.markup">Abbynoise</property>
    <property name="meta.attr.TLEN.markup">139125</property>
    <property name="seekable">1</property>
    <property name="meta.media.sample_aspect_num">1</property>
    <property name="meta.media.sample_aspect_den">1</property>
    <property name="audio_index">0</property>
    <property name="video_index">1</property>
    <property name="creation_time">2025-02-06T09:22:48</property>
    <property name="vstream">0</property>
    <property name="meta.media.frame_rate_num">90000</property>
    <property name="meta.media.frame_rate_den">1</property>
    <property name="meta.media.colorspace">601</property>
    <property name="meta.media.color_trc">2</property>
    <property name="meta.media.has_b_frames">0</property>
    <property name="meta.media.width">400</property>
    <property name="meta.media.height">400</property>
    <property name="meta.media.aspect_ratio">1</property>
    <property name="meta.media.color_range">full</property>
    <property name="astream">0</property>
    <property name="shotcut:skipConvert">1</property>
    <property name="xml">was here</property>
    <property name="shotcut:hash">c613233c6f6dc4e1e7cb891d50b8ce77</property>
    <property name="meta.media.top_field_first">0</property>
    <property name="meta.media.progressive">1</property>
    <property name="ignore_points">1</property>
    <property name="shotcut:caption">hot-tubes-abbynoise-main-version-20989-02-19.mp3</property>
  </chain>
  <chain id="chain16" out="00:01:47.217">
    <property name="length">00:01:47.233</property>
    <property name="eof">pause</property>
    <property name="resource">/home/ondrej/postdoc/grants/resources/tasks-for-grants/contextual-inference/assets/sound/soundtrack/hype-hero-pecan-pie-main-version-01-47-9301.mp3</property>
    <property name="mlt_service">avformat-novalidate</property>
    <property name="meta.media.nb_streams">2</property>
    <property name="meta.media.0.stream.type">audio</property>
    <property name="meta.media.0.codec.sample_fmt">fltp</property>
    <property name="meta.media.0.codec.sample_rate">44100</property>
    <property name="meta.media.0.codec.channels">2</property>
    <property name="meta.media.0.codec.layout">stereo</property>
    <property name="meta.media.0.codec.name">mp3float</property>
    <property name="meta.media.0.codec.long_name">MP3 (MPEG audio layer 3)</property>
    <property name="meta.media.0.codec.bit_rate">320000</property>
    <property name="meta.attr.0.stream.encoder.markup">LAME3.99r</property>
    <property name="meta.media.1.stream.type">video</property>
    <property name="meta.media.1.stream.frame_rate">90000</property>
    <property name="meta.media.1.stream.sample_aspect_ratio">0</property>
    <property name="meta.media.1.codec.width">400</property>
    <property name="meta.media.1.codec.height">400</property>
    <property name="meta.media.1.codec.rotate">0</property>
    <property name="meta.media.1.codec.pix_fmt">yuvj444p</property>
    <property name="meta.media.1.codec.sample_aspect_ratio">0</property>
    <property name="meta.media.1.codec.colorspace">601</property>
    <property name="meta.media.1.codec.name">mjpeg</property>
    <property name="meta.media.1.codec.long_name">MJPEG (Motion JPEG)</property>
    <property name="meta.media.1.codec.bit_rate">0</property>
    <property name="meta.attr.1.stream.comment.markup">Other</property>
    <property name="meta.attr.encoder.markup">LAME 64bits version 3.99.5 (http://lame.sf.net)</property>
    <property name="meta.attr.title.markup">Hype Hero</property>
    <property name="meta.attr.artist.markup">Pecan Pie</property>
    <property name="meta.attr.album.markup">Uppbeat</property>
    <property name="meta.attr.TLEN.markup">107200</property>
    <property name="seekable">1</property>
    <property name="meta.media.sample_aspect_num">1</property>
    <property name="meta.media.sample_aspect_den">1</property>
    <property name="audio_index">0</property>
    <property name="video_index">1</property>
    <property name="creation_time">2025-02-06T09:29:07</property>
    <property name="vstream">0</property>
    <property name="meta.media.frame_rate_num">90000</property>
    <property name="meta.media.frame_rate_den">1</property>
    <property name="meta.media.colorspace">601</property>
    <property name="meta.media.color_trc">2</property>
    <property name="meta.media.has_b_frames">0</property>
    <property name="meta.media.width">400</property>
    <property name="meta.media.height">400</property>
    <property name="meta.media.aspect_ratio">1</property>
    <property name="meta.media.color_range">full</property>
    <property name="astream">0</property>
    <property name="shotcut:skipConvert">1</property>
    <property name="xml">was here</property>
    <property name="shotcut:hash">7297208bef5e0c5c2185d054b1fd8822</property>
    <property name="meta.media.top_field_first">0</property>
    <property name="meta.media.progressive">1</property>
    <property name="ignore_points">1</property>
    <property name="shotcut:caption">hype-hero-pecan-pie-main-version-01-47-9301.mp3</property>
  </chain>
  <chain id="chain17" out="00:02:08.167">
    <property name="length">00:02:08.183</property>
    <property name="eof">pause</property>
    <property name="resource">/home/ondrej/postdoc/grants/resources/tasks-for-grants/contextual-inference/assets/sound/soundtrack/intro_music.mp3</property>
    <property name="mlt_service">avformat-novalidate</property>
    <property name="meta.media.nb_streams">2</property>
    <property name="meta.media.0.stream.type">audio</property>
    <property name="meta.media.0.codec.sample_fmt">fltp</property>
    <property name="meta.media.0.codec.sample_rate">44100</property>
    <property name="meta.media.0.codec.channels">2</property>
    <property name="meta.media.0.codec.layout">stereo</property>
    <property name="meta.media.0.codec.name">mp3float</property>
    <property name="meta.media.0.codec.long_name">MP3 (MPEG audio layer 3)</property>
    <property name="meta.media.0.codec.bit_rate">320000</property>
    <property name="meta.attr.0.stream.encoder.markup">LAME3.99r</property>
    <property name="meta.media.1.stream.type">video</property>
    <property name="meta.media.1.stream.frame_rate">90000</property>
    <property name="meta.media.1.stream.sample_aspect_ratio">0</property>
    <property name="meta.media.1.codec.width">500</property>
    <property name="meta.media.1.codec.height">500</property>
    <property name="meta.media.1.codec.rotate">0</property>
    <property name="meta.media.1.codec.pix_fmt">yuvj444p</property>
    <property name="meta.media.1.codec.sample_aspect_ratio">0</property>
    <property name="meta.media.1.codec.colorspace">601</property>
    <property name="meta.media.1.codec.name">mjpeg</property>
    <property name="meta.media.1.codec.long_name">MJPEG (Motion JPEG)</property>
    <property name="meta.media.1.codec.bit_rate">0</property>
    <property name="meta.attr.1.stream.comment.markup">Other</property>
    <property name="meta.attr.encoder.markup">LAME 64bits version 3.99.5 (http://lame.sf.net)</property>
    <property name="meta.attr.title.markup">To The Stars</property>
    <property name="meta.attr.artist.markup">Alex Besss</property>
    <property name="meta.attr.TLEN.markup">128142</property>
    <property name="seekable">1</property>
    <property name="meta.media.sample_aspect_num">1</property>
    <property name="meta.media.sample_aspect_den">1</property>
    <property name="audio_index">0</property>
    <property name="video_index">1</property>
    <property name="creation_time">2025-01-07T17:43:45</property>
    <property name="vstream">0</property>
    <property name="meta.media.frame_rate_num">90000</property>
    <property name="meta.media.frame_rate_den">1</property>
    <property name="meta.media.colorspace">601</property>
    <property name="meta.media.color_trc">2</property>
    <property name="meta.media.has_b_frames">0</property>
    <property name="meta.media.width">500</property>
    <property name="meta.media.height">500</property>
    <property name="meta.media.aspect_ratio">1</property>
    <property name="meta.media.color_range">full</property>
    <property name="astream">0</property>
    <property name="shotcut:skipConvert">1</property>
    <property name="xml">was here</property>
    <property name="shotcut:hash">85bdfa8151f18f57bdb37eaeacb6c78d</property>
    <property name="meta.media.top_field_first">0</property>
    <property name="meta.media.progressive">1</property>
    <property name="ignore_points">1</property>
    <property name="shotcut:caption">intro_music.mp3</property>
  </chain>
  <chain id="chain18" out="00:02:01.850">
    <property name="length">00:02:01.867</property>
    <property name="eof">pause</property>
    <property name="resource">/home/ondrej/postdoc/grants/resources/tasks-for-grants/contextual-inference/assets/sound/soundtrack/intro_music2.mp3</property>
    <property name="mlt_service">avformat-novalidate</property>
    <property name="meta.media.nb_streams">2</property>
    <property name="meta.media.0.stream.type">audio</property>
    <property name="meta.media.0.codec.sample_fmt">fltp</property>
    <property name="meta.media.0.codec.sample_rate">44100</property>
    <property name="meta.media.0.codec.channels">2</property>
    <property name="meta.media.0.codec.layout">stereo</property>
    <property name="meta.media.0.codec.name">mp3float</property>
    <property name="meta.media.0.codec.long_name">MP3 (MPEG audio layer 3)</property>
    <property name="meta.media.0.codec.bit_rate">320000</property>
    <property name="meta.attr.0.stream.encoder.markup">LAME3.99r</property>
    <property name="meta.media.1.stream.type">video</property>
    <property name="meta.media.1.stream.frame_rate">90000</property>
    <property name="meta.media.1.stream.sample_aspect_ratio">0</property>
    <property name="meta.media.1.codec.width">400</property>
    <property name="meta.media.1.codec.height">400</property>
    <property name="meta.media.1.codec.rotate">0</property>
    <property name="meta.media.1.codec.pix_fmt">yuvj444p</property>
    <property name="meta.media.1.codec.sample_aspect_ratio">0</property>
    <property name="meta.media.1.codec.colorspace">601</property>
    <property name="meta.media.1.codec.name">mjpeg</property>
    <property name="meta.media.1.codec.long_name">MJPEG (Motion JPEG)</property>
    <property name="meta.media.1.codec.bit_rate">0</property>
    <property name="meta.attr.1.stream.comment.markup">Other</property>
    <property name="meta.attr.encoder.markup">LAME 64bits version 3.99.5 (http://lame.sf.net)</property>
    <property name="meta.attr.title.markup">Daydreamer</property>
    <property name="meta.attr.artist.markup">Brock Hewitt: Stories in Sound</property>
    <property name="meta.attr.album.markup">Uppbeat</property>
    <property name="meta.attr.TLEN.markup">121832</property>
    <property name="seekable">1</property>
    <property name="meta.media.sample_aspect_num">1</property>
    <property name="meta.media.sample_aspect_den">1</property>
    <property name="audio_index">0</property>
    <property name="video_index">1</property>
    <property name="creation_time">2025-01-07T17:50:31</property>
    <property name="vstream">0</property>
    <property name="meta.media.frame_rate_num">90000</property>
    <property name="meta.media.frame_rate_den">1</property>
    <property name="meta.media.colorspace">601</property>
    <property name="meta.media.color_trc">2</property>
    <property name="meta.media.has_b_frames">0</property>
    <property name="meta.media.width">400</property>
    <property name="meta.media.height">400</property>
    <property name="meta.media.aspect_ratio">1</property>
    <property name="meta.media.color_range">full</property>
    <property name="astream">0</property>
    <property name="shotcut:skipConvert">1</property>
    <property name="xml">was here</property>
    <property name="shotcut:hash">76c7859e1a528cdf19777a3fdc08a6a6</property>
    <property name="meta.media.top_field_first">0</property>
    <property name="meta.media.progressive">1</property>
    <property name="ignore_points">1</property>
    <property name="shotcut:caption">intro_music2.mp3</property>
  </chain>
  <chain id="chain19" out="00:02:14.700">
    <property name="length">00:02:14.717</property>
    <property name="eof">pause</property>
    <property name="resource">/home/ondrej/postdoc/grants/resources/tasks-for-grants/contextual-inference/assets/sound/soundtrack/limitless-travel-paul-yudin-main-version-17779-02-14.mp3</property>
    <property name="mlt_service">avformat-novalidate</property>
    <property name="meta.media.nb_streams">2</property>
    <property name="meta.media.0.stream.type">audio</property>
    <property name="meta.media.0.codec.sample_fmt">fltp</property>
    <property name="meta.media.0.codec.sample_rate">44100</property>
    <property name="meta.media.0.codec.channels">2</property>
    <property name="meta.media.0.codec.layout">stereo</property>
    <property name="meta.media.0.codec.name">mp3float</property>
    <property name="meta.media.0.codec.long_name">MP3 (MPEG audio layer 3)</property>
    <property name="meta.media.0.codec.bit_rate">320000</property>
    <property name="meta.attr.0.stream.encoder.markup">LAME3.99r</property>
    <property name="meta.media.1.stream.type">video</property>
    <property name="meta.media.1.stream.frame_rate">90000</property>
    <property name="meta.media.1.stream.sample_aspect_ratio">0</property>
    <property name="meta.media.1.codec.width">500</property>
    <property name="meta.media.1.codec.height">500</property>
    <property name="meta.media.1.codec.rotate">0</property>
    <property name="meta.media.1.codec.pix_fmt">yuvj444p</property>
    <property name="meta.media.1.codec.sample_aspect_ratio">1</property>
    <property name="meta.media.1.codec.colorspace">601</property>
    <property name="meta.media.1.codec.name">mjpeg</property>
    <property name="meta.media.1.codec.long_name">MJPEG (Motion JPEG)</property>
    <property name="meta.media.1.codec.bit_rate">0</property>
    <property name="meta.attr.1.stream.comment.markup">Other</property>
    <property name="meta.attr.encoder.markup">LAME 64bits version 3.99.5 (http://lame.sf.net)</property>
    <property name="meta.attr.title.markup">Limitless Travel</property>
    <property name="meta.attr.artist.markup">Paul Yudin</property>
    <property name="meta.attr.TLEN.markup">134675</property>
    <property name="seekable">1</property>
    <property name="meta.media.sample_aspect_num">1</property>
    <property name="meta.media.sample_aspect_den">1</property>
    <property name="audio_index">0</property>
    <property name="video_index">1</property>
    <property name="creation_time">2025-02-06T09:20:48</property>
    <property name="vstream">0</property>
    <property name="meta.media.frame_rate_num">90000</property>
    <property name="meta.media.frame_rate_den">1</property>
    <property name="meta.media.colorspace">601</property>
    <property name="meta.media.color_trc">2</property>
    <property name="meta.media.has_b_frames">0</property>
    <property name="meta.media.width">500</property>
    <property name="meta.media.height">500</property>
    <property name="meta.media.aspect_ratio">1</property>
    <property name="meta.media.color_range">full</property>
    <property name="astream">0</property>
    <property name="shotcut:skipConvert">1</property>
    <property name="xml">was here</property>
    <property name="shotcut:hash">d8465de6adfbee0b634291c377d9c8e9</property>
  </chain>
  <chain id="chain20" out="00:02:04.333">
    <property name="length">00:02:04.350</property>
    <property name="eof">pause</property>
    <property name="resource">/home/ondrej/postdoc/grants/resources/tasks-for-grants/contextual-inference/assets/sound/soundtrack/mossy-step-corals-main-version-30898-02-04.mp3</property>
    <property name="mlt_service">avformat-novalidate</property>
    <property name="meta.media.nb_streams">2</property>
    <property name="meta.media.0.stream.type">audio</property>
    <property name="meta.media.0.codec.sample_fmt">fltp</property>
    <property name="meta.media.0.codec.sample_rate">44100</property>
    <property name="meta.media.0.codec.channels">2</property>
    <property name="meta.media.0.codec.layout">stereo</property>
    <property name="meta.media.0.codec.name">mp3float</property>
    <property name="meta.media.0.codec.long_name">MP3 (MPEG audio layer 3)</property>
    <property name="meta.media.0.codec.bit_rate">320000</property>
    <property name="meta.attr.0.stream.encoder.markup">LAME3.99r</property>
    <property name="meta.media.1.stream.type">video</property>
    <property name="meta.media.1.stream.frame_rate">90000</property>
    <property name="meta.media.1.stream.sample_aspect_ratio">0</property>
    <property name="meta.media.1.codec.width">512</property>
    <property name="meta.media.1.codec.height">512</property>
    <property name="meta.media.1.codec.rotate">0</property>
    <property name="meta.media.1.codec.pix_fmt">yuvj444p</property>
    <property name="meta.media.1.codec.sample_aspect_ratio">0</property>
    <property name="meta.media.1.codec.colorspace">601</property>
    <property name="meta.media.1.codec.name">mjpeg</property>
    <property name="meta.media.1.codec.long_name">MJPEG (Motion JPEG)</property>
    <property name="meta.media.1.codec.bit_rate">0</property>
    <property name="meta.attr.1.stream.comment.markup">Other</property>
    <property name="meta.attr.encoder.markup">LAME 64bits version 3.99.5 (http://lame.sf.net)</property>
    <property name="meta.attr.title.markup">Mossy Step</property>
    <property name="meta.attr.artist.markup">Corals</property>
    <property name="meta.attr.TLEN.markup">124304</property>
    <property name="seekable">1</property>
    <property name="meta.media.sample_aspect_num">1</property>
    <property name="meta.media.sample_aspect_den">1</property>
    <property name="audio_index">0</property>
    <property name="video_index">1</property>
    <property name="creation_time">2025-02-06T09:13:33</property>
    <property name="vstream">0</property>
    <property name="meta.media.frame_rate_num">90000</property>
    <property name="meta.media.frame_rate_den">1</property>
    <property name="meta.media.colorspace">601</property>
    <property name="meta.media.color_trc">2</property>
    <property name="meta.media.has_b_frames">0</property>
    <property name="meta.media.width">512</property>
    <property name="meta.media.height">512</property>
    <property name="meta.media.aspect_ratio">1</property>
    <property name="meta.media.color_range">full</property>
    <property name="astream">0</property>
    <property name="shotcut:skipConvert">1</property>
    <property name="xml">was here</property>
    <property name="shotcut:hash">4953a2537920736d1fbecba0bbc7a90c</property>
    <property name="meta.media.top_field_first">0</property>
    <property name="meta.media.progressive">1</property>
    <property name="ignore_points">1</property>
    <property name="shotcut:caption">mossy-step-corals-main-version-30898-02-04.mp3</property>
  </chain>
  <chain id="chain21" out="00:03:04.167">
    <property name="length">00:03:04.183</property>
    <property name="eof">pause</property>
    <property name="resource">/home/ondrej/postdoc/grants/resources/tasks-for-grants/contextual-inference/assets/sound/soundtrack/moving-forward-prigida-main-version-03-04-9325.mp3</property>
    <property name="mlt_service">avformat-novalidate</property>
    <property name="meta.media.nb_streams">2</property>
    <property name="meta.media.0.stream.type">audio</property>
    <property name="meta.media.0.codec.sample_fmt">fltp</property>
    <property name="meta.media.0.codec.sample_rate">44100</property>
    <property name="meta.media.0.codec.channels">2</property>
    <property name="meta.media.0.codec.layout">stereo</property>
    <property name="meta.media.0.codec.name">mp3float</property>
    <property name="meta.media.0.codec.long_name">MP3 (MPEG audio layer 3)</property>
    <property name="meta.media.0.codec.bit_rate">320000</property>
    <property name="meta.attr.0.stream.encoder.markup">LAME3.99r</property>
    <property name="meta.media.1.stream.type">video</property>
    <property name="meta.media.1.stream.frame_rate">90000</property>
    <property name="meta.media.1.stream.sample_aspect_ratio">0</property>
    <property name="meta.media.1.codec.width">400</property>
    <property name="meta.media.1.codec.height">400</property>
    <property name="meta.media.1.codec.rotate">0</property>
    <property name="meta.media.1.codec.pix_fmt">yuvj444p</property>
    <property name="meta.media.1.codec.sample_aspect_ratio">0</property>
    <property name="meta.media.1.codec.colorspace">601</property>
    <property name="meta.media.1.codec.name">mjpeg</property>
    <property name="meta.media.1.codec.long_name">MJPEG (Motion JPEG)</property>
    <property name="meta.media.1.codec.bit_rate">0</property>
    <property name="meta.attr.1.stream.comment.markup">Other</property>
    <property name="meta.attr.encoder.markup">LAME 64bits version 3.99.5 (http://lame.sf.net)</property>
    <property name="meta.attr.title.markup">Moving Forward</property>
    <property name="meta.attr.artist.markup">Prigida</property>
    <property name="meta.attr.album.markup">Uppbeat</property>
    <property name="meta.attr.TLEN.markup">184137</property>
    <property name="seekable">1</property>
    <property name="meta.media.sample_aspect_num">1</property>
    <property name="meta.media.sample_aspect_den">1</property>
    <property name="audio_index">0</property>
    <property name="video_index">1</property>
    <property name="creation_time">2025-02-06T09:25:06</property>
    <property name="vstream">0</property>
    <property name="meta.media.frame_rate_num">90000</property>
    <property name="meta.media.frame_rate_den">1</property>
    <property name="meta.media.colorspace">601</property>
    <property name="meta.media.color_trc">2</property>
    <property name="meta.media.has_b_frames">0</property>
    <property name="meta.media.width">400</property>
    <property name="meta.media.height">400</property>
    <property name="meta.media.aspect_ratio">1</property>
    <property name="meta.media.color_range">full</property>
    <property name="astream">0</property>
    <property name="shotcut:skipConvert">1</property>
    <property name="xml">was here</property>
    <property name="shotcut:hash">d08d62d8ad661b8614a4a88bd63c47bf</property>
  </chain>
  <chain id="chain22" out="00:01:57.217">
    <property name="length">00:01:57.233</property>
    <property name="eof">pause</property>
    <property name="resource">/home/ondrej/postdoc/grants/resources/tasks-for-grants/contextual-inference/assets/sound/soundtrack/night-in-kyoto-avbe-main-version-21302-01-57.mp3</property>
    <property name="mlt_service">avformat-novalidate</property>
    <property name="meta.media.nb_streams">2</property>
    <property name="meta.media.0.stream.type">audio</property>
    <property name="meta.media.0.codec.sample_fmt">fltp</property>
    <property name="meta.media.0.codec.sample_rate">44100</property>
    <property name="meta.media.0.codec.channels">2</property>
    <property name="meta.media.0.codec.layout">stereo</property>
    <property name="meta.media.0.codec.name">mp3float</property>
    <property name="meta.media.0.codec.long_name">MP3 (MPEG audio layer 3)</property>
    <property name="meta.media.0.codec.bit_rate">320000</property>
    <property name="meta.attr.0.stream.encoder.markup">LAME3.99r</property>
    <property name="meta.media.1.stream.type">video</property>
    <property name="meta.media.1.stream.frame_rate">90000</property>
    <property name="meta.media.1.stream.sample_aspect_ratio">0</property>
    <property name="meta.media.1.codec.width">500</property>
    <property name="meta.media.1.codec.height">500</property>
    <property name="meta.media.1.codec.rotate">0</property>
    <property name="meta.media.1.codec.pix_fmt">yuvj444p</property>
    <property name="meta.media.1.codec.sample_aspect_ratio">0</property>
    <property name="meta.media.1.codec.colorspace">601</property>
    <property name="meta.media.1.codec.name">mjpeg</property>
    <property name="meta.media.1.codec.long_name">MJPEG (Motion JPEG)</property>
    <property name="meta.media.1.codec.bit_rate">0</property>
    <property name="meta.attr.1.stream.comment.markup">Other</property>
    <property name="meta.attr.encoder.markup">LAME 64bits version 3.99.5 (http://lame.sf.net)</property>
    <property name="meta.attr.title.markup">Night In Kyoto</property>
    <property name="meta.attr.artist.markup">AVBE</property>
    <property name="meta.attr.TLEN.markup">117187</property>
    <property name="seekable">1</property>
    <property name="meta.media.sample_aspect_num">1</property>
    <property name="meta.media.sample_aspect_den">1</property>
    <property name="audio_index">0</property>
    <property name="video_index">1</property>
    <property name="creation_time">2025-02-06T09:15:44</property>
    <property name="vstream">0</property>
    <property name="meta.media.frame_rate_num">90000</property>
    <property name="meta.media.frame_rate_den">1</property>
    <property name="meta.media.colorspace">601</property>
    <property name="meta.media.color_trc">2</property>
    <property name="meta.media.has_b_frames">0</property>
    <property name="meta.media.width">500</property>
    <property name="meta.media.height">500</property>
    <property name="meta.media.aspect_ratio">1</property>
    <property name="meta.media.color_range">full</property>
    <property name="astream">0</property>
    <property name="shotcut:skipConvert">1</property>
    <property name="xml">was here</property>
    <property name="shotcut:hash">44e63d7f46f1d43b2f1eaacbaf5d7267</property>
  </chain>
  <chain id="chain23" out="00:02:40.717">
    <property name="length">00:02:40.733</property>
    <property name="eof">pause</property>
    <property name="resource">/home/ondrej/postdoc/grants/resources/tasks-for-grants/contextual-inference/assets/sound/soundtrack/on-our-way-dan-phillipson-main-version-02-40-10489.mp3</property>
    <property name="mlt_service">avformat-novalidate</property>
    <property name="meta.media.nb_streams">2</property>
    <property name="meta.media.0.stream.type">audio</property>
    <property name="meta.media.0.codec.sample_fmt">fltp</property>
    <property name="meta.media.0.codec.sample_rate">44100</property>
    <property name="meta.media.0.codec.channels">2</property>
    <property name="meta.media.0.codec.layout">stereo</property>
    <property name="meta.media.0.codec.name">mp3float</property>
    <property name="meta.media.0.codec.long_name">MP3 (MPEG audio layer 3)</property>
    <property name="meta.media.0.codec.bit_rate">320000</property>
    <property name="meta.attr.0.stream.encoder.markup">LAME3.99r</property>
    <property name="meta.media.1.stream.type">video</property>
    <property name="meta.media.1.stream.frame_rate">90000</property>
    <property name="meta.media.1.stream.sample_aspect_ratio">0</property>
    <property name="meta.media.1.codec.width">400</property>
    <property name="meta.media.1.codec.height">400</property>
    <property name="meta.media.1.codec.rotate">0</property>
    <property name="meta.media.1.codec.pix_fmt">yuvj444p</property>
    <property name="meta.media.1.codec.sample_aspect_ratio">0</property>
    <property name="meta.media.1.codec.colorspace">601</property>
    <property name="meta.media.1.codec.name">mjpeg</property>
    <property name="meta.media.1.codec.long_name">MJPEG (Motion JPEG)</property>
    <property name="meta.media.1.codec.bit_rate">0</property>
    <property name="meta.attr.1.stream.comment.markup">Other</property>
    <property name="meta.attr.encoder.markup">LAME 64bits version 3.99.5 (http://lame.sf.net)</property>
    <property name="meta.attr.title.markup">On Our Way</property>
    <property name="meta.attr.artist.markup">Dan Phillipson</property>
    <property name="meta.attr.album.markup">Uppbeat</property>
    <property name="meta.attr.TLEN.markup">160694</property>
    <property name="seekable">1</property>
    <property name="meta.media.sample_aspect_num">1</property>
    <property name="meta.media.sample_aspect_den">1</property>
    <property name="audio_index">0</property>
    <property name="video_index">1</property>
    <property name="creation_time">2025-02-06T09:19:41</property>
    <property name="vstream">0</property>
    <property name="meta.media.frame_rate_num">90000</property>
    <property name="meta.media.frame_rate_den">1</property>
    <property name="meta.media.colorspace">601</property>
    <property name="meta.media.color_trc">2</property>
    <property name="meta.media.has_b_frames">0</property>
    <property name="meta.media.width">400</property>
    <property name="meta.media.height">400</property>
    <property name="meta.media.aspect_ratio">1</property>
    <property name="meta.media.color_range">full</property>
    <property name="astream">0</property>
    <property name="shotcut:skipConvert">1</property>
    <property name="xml">was here</property>
    <property name="shotcut:hash">45b9015f818b739864a79140f7af405d</property>
    <property name="meta.media.top_field_first">0</property>
    <property name="meta.media.progressive">1</property>
    <property name="ignore_points">1</property>
    <property name="shotcut:caption">on-our-way-dan-phillipson-main-version-02-40-10489.mp3</property>
  </chain>
  <chain id="chain24" out="00:01:04.250">
    <property name="length">00:01:04.267</property>
    <property name="eof">pause</property>
    <property name="resource">/home/ondrej/postdoc/grants/resources/tasks-for-grants/contextual-inference/assets/sound/soundtrack/outro_music.mp3</property>
    <property name="mlt_service">avformat-novalidate</property>
    <property name="meta.media.nb_streams">2</property>
    <property name="meta.media.0.stream.type">audio</property>
    <property name="meta.media.0.codec.sample_fmt">fltp</property>
    <property name="meta.media.0.codec.sample_rate">44100</property>
    <property name="meta.media.0.codec.channels">2</property>
    <property name="meta.media.0.codec.layout">stereo</property>
    <property name="meta.media.0.codec.name">mp3float</property>
    <property name="meta.media.0.codec.long_name">MP3 (MPEG audio layer 3)</property>
    <property name="meta.media.0.codec.bit_rate">320000</property>
    <property name="meta.attr.0.stream.encoder.markup">LAME3.99r</property>
    <property name="meta.media.1.stream.type">video</property>
    <property name="meta.media.1.stream.frame_rate">90000</property>
    <property name="meta.media.1.stream.sample_aspect_ratio">0</property>
    <property name="meta.media.1.codec.width">500</property>
    <property name="meta.media.1.codec.height">500</property>
    <property name="meta.media.1.codec.rotate">0</property>
    <property name="meta.media.1.codec.pix_fmt">yuvj444p</property>
    <property name="meta.media.1.codec.sample_aspect_ratio">1</property>
    <property name="meta.media.1.codec.colorspace">601</property>
    <property name="meta.media.1.codec.name">mjpeg</property>
    <property name="meta.media.1.codec.long_name">MJPEG (Motion JPEG)</property>
    <property name="meta.media.1.codec.bit_rate">0</property>
    <property name="meta.attr.1.stream.comment.markup">Other</property>
    <property name="meta.attr.encoder.markup">LAME 64bits version 3.99.5 (http://lame.sf.net)</property>
    <property name="meta.attr.title.markup">Whiskey Bar Ragtime</property>
    <property name="meta.attr.artist.markup">Soundroll</property>
    <property name="meta.attr.TLEN.markup">64218</property>
    <property name="seekable">1</property>
    <property name="meta.media.sample_aspect_num">1</property>
    <property name="meta.media.sample_aspect_den">1</property>
    <property name="audio_index">0</property>
    <property name="video_index">1</property>
    <property name="creation_time">2025-01-07T17:48:14</property>
    <property name="vstream">0</property>
    <property name="meta.media.frame_rate_num">90000</property>
    <property name="meta.media.frame_rate_den">1</property>
    <property name="meta.media.colorspace">601</property>
    <property name="meta.media.color_trc">2</property>
    <property name="meta.media.has_b_frames">0</property>
    <property name="meta.media.width">500</property>
    <property name="meta.media.height">500</property>
    <property name="meta.media.aspect_ratio">1</property>
    <property name="meta.media.color_range">full</property>
    <property name="astream">0</property>
    <property name="shotcut:skipConvert">1</property>
    <property name="xml">was here</property>
    <property name="shotcut:hash">94bb16c46c0c1104c05f280f508f4f5f</property>
  </chain>
  <chain id="chain25" out="00:02:20.917">
    <property name="length">00:02:20.933</property>
    <property name="eof">pause</property>
    <property name="resource">/home/ondrej/postdoc/grants/resources/tasks-for-grants/contextual-inference/assets/sound/soundtrack/overture-hartzmann-main-version-16906-02-20.mp3</property>
    <property name="mlt_service">avformat-novalidate</property>
    <property name="meta.media.nb_streams">2</property>
    <property name="meta.media.0.stream.type">audio</property>
    <property name="meta.media.0.codec.sample_fmt">fltp</property>
    <property name="meta.media.0.codec.sample_rate">44100</property>
    <property name="meta.media.0.codec.channels">2</property>
    <property name="meta.media.0.codec.layout">stereo</property>
    <property name="meta.media.0.codec.name">mp3float</property>
    <property name="meta.media.0.codec.long_name">MP3 (MPEG audio layer 3)</property>
    <property name="meta.media.0.codec.bit_rate">320000</property>
    <property name="meta.attr.0.stream.encoder.markup">LAME3.99r</property>
    <property name="meta.media.1.stream.type">video</property>
    <property name="meta.media.1.stream.frame_rate">90000</property>
    <property name="meta.media.1.stream.sample_aspect_ratio">0</property>
    <property name="meta.media.1.codec.width">500</property>
    <property name="meta.media.1.codec.height">500</property>
    <property name="meta.media.1.codec.rotate">0</property>
    <property name="meta.media.1.codec.pix_fmt">yuvj444p</property>
    <property name="meta.media.1.codec.sample_aspect_ratio">0</property>
    <property name="meta.media.1.codec.colorspace">601</property>
    <property name="meta.media.1.codec.name">mjpeg</property>
    <property name="meta.media.1.codec.long_name">MJPEG (Motion JPEG)</property>
    <property name="meta.media.1.codec.bit_rate">0</property>
    <property name="meta.attr.1.stream.comment.markup">Other</property>
    <property name="meta.attr.encoder.markup">LAME 64bits version 3.99.5 (http://lame.sf.net)</property>
    <property name="meta.attr.title.markup">Overture</property>
    <property name="meta.attr.artist.markup">Hartzmann</property>
    <property name="meta.attr.TLEN.markup">140900</property>
    <property name="seekable">1</property>
    <property name="meta.media.sample_aspect_num">1</property>
    <property name="meta.media.sample_aspect_den">1</property>
    <property name="audio_index">0</property>
    <property name="video_index">1</property>
    <property name="creation_time">2025-02-06T09:25:16</property>
    <property name="vstream">0</property>
    <property name="meta.media.frame_rate_num">90000</property>
    <property name="meta.media.frame_rate_den">1</property>
    <property name="meta.media.colorspace">601</property>
    <property name="meta.media.color_trc">2</property>
    <property name="meta.media.has_b_frames">0</property>
    <property name="meta.media.width">500</property>
    <property name="meta.media.height">500</property>
    <property name="meta.media.aspect_ratio">1</property>
    <property name="meta.media.color_range">full</property>
    <property name="astream">0</property>
    <property name="shotcut:skipConvert">1</property>
    <property name="xml">was here</property>
    <property name="shotcut:hash">e90e163841906fbc126eaf07e2446510</property>
    <property name="meta.media.top_field_first">0</property>
    <property name="meta.media.progressive">1</property>
    <property name="ignore_points">1</property>
    <property name="shotcut:caption">overture-hartzmann-main-version-16906-02-20.mp3</property>
  </chain>
  <chain id="chain26" out="00:01:40.917">
    <property name="length">00:01:40.933</property>
    <property name="eof">pause</property>
    <property name="resource">/home/ondrej/postdoc/grants/resources/tasks-for-grants/contextual-inference/assets/sound/soundtrack/peppy-steps-stan-town-main-version-33615-01-40.mp3</property>
    <property name="mlt_service">avformat-novalidate</property>
    <property name="meta.media.nb_streams">2</property>
    <property name="meta.media.0.stream.type">audio</property>
    <property name="meta.media.0.codec.sample_fmt">fltp</property>
    <property name="meta.media.0.codec.sample_rate">44100</property>
    <property name="meta.media.0.codec.channels">2</property>
    <property name="meta.media.0.codec.layout">stereo</property>
    <property name="meta.media.0.codec.name">mp3float</property>
    <property name="meta.media.0.codec.long_name">MP3 (MPEG audio layer 3)</property>
    <property name="meta.media.0.codec.bit_rate">320000</property>
    <property name="meta.attr.0.stream.encoder.markup">LAME3.99r</property>
    <property name="meta.media.1.stream.type">video</property>
    <property name="meta.media.1.stream.frame_rate">90000</property>
    <property name="meta.media.1.stream.sample_aspect_ratio">0</property>
    <property name="meta.media.1.codec.width">500</property>
    <property name="meta.media.1.codec.height">500</property>
    <property name="meta.media.1.codec.rotate">0</property>
    <property name="meta.media.1.codec.pix_fmt">yuvj420p</property>
    <property name="meta.media.1.codec.sample_aspect_ratio">0</property>
    <property name="meta.media.1.codec.colorspace">601</property>
    <property name="meta.media.1.codec.name">mjpeg</property>
    <property name="meta.media.1.codec.long_name">MJPEG (Motion JPEG)</property>
    <property name="meta.media.1.codec.bit_rate">0</property>
    <property name="meta.attr.1.stream.comment.markup">Other</property>
    <property name="meta.attr.encoder.markup">LAME 64bits version 3.99.5 (http://lame.sf.net)</property>
    <property name="meta.attr.title.markup">Peppy Steps</property>
    <property name="meta.attr.artist.markup">Stan Town</property>
    <property name="meta.attr.TLEN.markup">100909</property>
    <property name="seekable">1</property>
    <property name="meta.media.sample_aspect_num">1</property>
    <property name="meta.media.sample_aspect_den">1</property>
    <property name="audio_index">0</property>
    <property name="video_index">1</property>
    <property name="creation_time">2025-02-06T09:18:55</property>
    <property name="vstream">0</property>
    <property name="meta.media.frame_rate_num">90000</property>
    <property name="meta.media.frame_rate_den">1</property>
    <property name="meta.media.colorspace">601</property>
    <property name="meta.media.color_trc">2</property>
    <property name="meta.media.has_b_frames">0</property>
    <property name="meta.media.width">500</property>
    <property name="meta.media.height">500</property>
    <property name="meta.media.aspect_ratio">1</property>
    <property name="meta.media.color_range">full</property>
    <property name="astream">0</property>
    <property name="shotcut:skipConvert">1</property>
    <property name="xml">was here</property>
    <property name="shotcut:hash">2ac36674e77c30fba3f88bf9bd0fd387</property>
    <property name="meta.media.top_field_first">0</property>
    <property name="meta.media.progressive">1</property>
    <property name="ignore_points">1</property>
    <property name="shotcut:caption">peppy-steps-stan-town-main-version-33615-01-40.mp3</property>
  </chain>
  <chain id="chain27" out="00:01:58.417">
    <property name="length">00:01:58.433</property>
    <property name="eof">pause</property>
    <property name="resource">/home/ondrej/postdoc/grants/resources/tasks-for-grants/contextual-inference/assets/sound/soundtrack/quirky_game_music.mp3</property>
    <property name="mlt_service">avformat-novalidate</property>
    <property name="meta.media.nb_streams">2</property>
    <property name="meta.media.0.stream.type">audio</property>
    <property name="meta.media.0.codec.sample_fmt">fltp</property>
    <property name="meta.media.0.codec.sample_rate">44100</property>
    <property name="meta.media.0.codec.channels">2</property>
    <property name="meta.media.0.codec.layout">stereo</property>
    <property name="meta.media.0.codec.name">mp3float</property>
    <property name="meta.media.0.codec.long_name">MP3 (MPEG audio layer 3)</property>
    <property name="meta.media.0.codec.bit_rate">320000</property>
    <property name="meta.attr.0.stream.encoder.markup">LAME3.99r</property>
    <property name="meta.media.1.stream.type">video</property>
    <property name="meta.media.1.stream.frame_rate">90000</property>
    <property name="meta.media.1.stream.sample_aspect_ratio">0</property>
    <property name="meta.media.1.codec.width">500</property>
    <property name="meta.media.1.codec.height">500</property>
    <property name="meta.media.1.codec.rotate">0</property>
    <property name="meta.media.1.codec.pix_fmt">yuvj444p</property>
    <property name="meta.media.1.codec.sample_aspect_ratio">1</property>
    <property name="meta.media.1.codec.colorspace">601</property>
    <property name="meta.media.1.codec.name">mjpeg</property>
    <property name="meta.media.1.codec.long_name">MJPEG (Motion JPEG)</property>
    <property name="meta.media.1.codec.bit_rate">0</property>
    <property name="meta.attr.1.stream.comment.markup">Other</property>
    <property name="meta.attr.encoder.markup">LAME 64bits version 3.99.5 (http://lame.sf.net)</property>
    <property name="meta.attr.title.markup">Jaunty Gumption</property>
    <property name="meta.attr.artist.markup">Kevin MacLeod</property>
    <property name="meta.attr.TLEN.markup">118413</property>
    <property name="seekable">1</property>
    <property name="meta.media.sample_aspect_num">1</property>
    <property name="meta.media.sample_aspect_den">1</property>
    <property name="audio_index">0</property>
    <property name="video_index">1</property>
    <property name="creation_time">2025-01-07T17:46:31</property>
    <property name="vstream">0</property>
    <property name="meta.media.frame_rate_num">90000</property>
    <property name="meta.media.frame_rate_den">1</property>
    <property name="meta.media.colorspace">601</property>
    <property name="meta.media.color_trc">2</property>
    <property name="meta.media.has_b_frames">0</property>
    <property name="meta.media.width">500</property>
    <property name="meta.media.height">500</property>
    <property name="meta.media.aspect_ratio">1</property>
    <property name="meta.media.color_range">full</property>
    <property name="astream">0</property>
    <property name="shotcut:skipConvert">1</property>
    <property name="xml">was here</property>
    <property name="shotcut:hash">b7aa0af8c14fae07a2f5c3a9ccec4468</property>
  </chain>
  <chain id="chain28" out="00:03:21.433">
    <property name="length">00:03:21.450</property>
    <property name="eof">pause</property>
    <property name="resource">/home/ondrej/postdoc/grants/resources/tasks-for-grants/contextual-inference/assets/sound/soundtrack/slow-mo-dreams-soundroll-main-version-1728-03-21.mp3</property>
    <property name="mlt_service">avformat-novalidate</property>
    <property name="meta.media.nb_streams">2</property>
    <property name="meta.media.0.stream.type">audio</property>
    <property name="meta.media.0.codec.sample_fmt">fltp</property>
    <property name="meta.media.0.codec.sample_rate">44100</property>
    <property name="meta.media.0.codec.channels">2</property>
    <property name="meta.media.0.codec.layout">stereo</property>
    <property name="meta.media.0.codec.name">mp3float</property>
    <property name="meta.media.0.codec.long_name">MP3 (MPEG audio layer 3)</property>
    <property name="meta.media.0.codec.bit_rate">320000</property>
    <property name="meta.attr.0.stream.encoder.markup">LAME3.99r</property>
    <property name="meta.media.1.stream.type">video</property>
    <property name="meta.media.1.stream.frame_rate">90000</property>
    <property name="meta.media.1.stream.sample_aspect_ratio">0</property>
    <property name="meta.media.1.codec.width">500</property>
    <property name="meta.media.1.codec.height">500</property>
    <property name="meta.media.1.codec.rotate">0</property>
    <property name="meta.media.1.codec.pix_fmt">yuvj444p</property>
    <property name="meta.media.1.codec.sample_aspect_ratio">1</property>
    <property name="meta.media.1.codec.colorspace">601</property>
    <property name="meta.media.1.codec.name">mjpeg</property>
    <property name="meta.media.1.codec.long_name">MJPEG (Motion JPEG)</property>
    <property name="meta.media.1.codec.bit_rate">0</property>
    <property name="meta.attr.1.stream.comment.markup">Other</property>
    <property name="meta.attr.encoder.markup">LAME 64bits version 3.99.5 (http://lame.sf.net)</property>
    <property name="meta.attr.title.markup">Slow Mo Dreams</property>
    <property name="meta.attr.artist.markup">Soundroll</property>
    <property name="meta.attr.TLEN.markup">201428</property>
    <property name="seekable">1</property>
    <property name="meta.media.sample_aspect_num">1</property>
    <property name="meta.media.sample_aspect_den">1</property>
    <property name="audio_index">0</property>
    <property name="video_index">1</property>
    <property name="creation_time">2025-02-06T09:17:55</property>
    <property name="vstream">0</property>
    <property name="meta.media.frame_rate_num">90000</property>
    <property name="meta.media.frame_rate_den">1</property>
    <property name="meta.media.colorspace">601</property>
    <property name="meta.media.color_trc">2</property>
    <property name="meta.media.has_b_frames">0</property>
    <property name="meta.media.width">500</property>
    <property name="meta.media.height">500</property>
    <property name="meta.media.aspect_ratio">1</property>
    <property name="meta.media.color_range">full</property>
    <property name="astream">0</property>
    <property name="shotcut:skipConvert">1</property>
    <property name="xml">was here</property>
    <property name="shotcut:hash">58999bab93f2eb8f2f57c8e781813e2a</property>
  </chain>
  <chain id="chain29" out="00:02:34.650">
    <property name="length">00:02:34.667</property>
    <property name="eof">pause</property>
    <property name="resource">/home/ondrej/postdoc/grants/resources/tasks-for-grants/contextual-inference/assets/sound/soundtrack/solstice-tobias-voigt-main-version-19298-02-34.mp3</property>
    <property name="mlt_service">avformat-novalidate</property>
    <property name="meta.media.nb_streams">2</property>
    <property name="meta.media.0.stream.type">audio</property>
    <property name="meta.media.0.codec.sample_fmt">fltp</property>
    <property name="meta.media.0.codec.sample_rate">44100</property>
    <property name="meta.media.0.codec.channels">2</property>
    <property name="meta.media.0.codec.layout">stereo</property>
    <property name="meta.media.0.codec.name">mp3float</property>
    <property name="meta.media.0.codec.long_name">MP3 (MPEG audio layer 3)</property>
    <property name="meta.media.0.codec.bit_rate">320000</property>
    <property name="meta.attr.0.stream.encoder.markup">LAME3.99r</property>
    <property name="meta.media.1.stream.type">video</property>
    <property name="meta.media.1.stream.frame_rate">90000</property>
    <property name="meta.media.1.stream.sample_aspect_ratio">0</property>
    <property name="meta.media.1.codec.width">500</property>
    <property name="meta.media.1.codec.height">500</property>
    <property name="meta.media.1.codec.rotate">0</property>
    <property name="meta.media.1.codec.pix_fmt">yuvj444p</property>
    <property name="meta.media.1.codec.sample_aspect_ratio">1</property>
    <property name="meta.media.1.codec.colorspace">601</property>
    <property name="meta.media.1.codec.name">mjpeg</property>
    <property name="meta.media.1.codec.long_name">MJPEG (Motion JPEG)</property>
    <property name="meta.media.1.codec.bit_rate">0</property>
    <property name="meta.attr.1.stream.comment.markup">Other</property>
    <property name="meta.attr.encoder.markup">LAME 64bits version 3.99.5 (http://lame.sf.net)</property>
    <property name="meta.attr.title.markup">Solstice</property>
    <property name="meta.attr.artist.markup">Tobias Voigt</property>
    <property name="meta.attr.TLEN.markup">154627</property>
    <property name="seekable">1</property>
    <property name="meta.media.sample_aspect_num">1</property>
    <property name="meta.media.sample_aspect_den">1</property>
    <property name="audio_index">0</property>
    <property name="video_index">1</property>
    <property name="creation_time">2025-02-06T09:18:27</property>
    <property name="vstream">0</property>
    <property name="meta.media.frame_rate_num">90000</property>
    <property name="meta.media.frame_rate_den">1</property>
    <property name="meta.media.colorspace">601</property>
    <property name="meta.media.color_trc">2</property>
    <property name="meta.media.has_b_frames">0</property>
    <property name="meta.media.width">500</property>
    <property name="meta.media.height">500</property>
    <property name="meta.media.aspect_ratio">1</property>
    <property name="meta.media.color_range">full</property>
    <property name="astream">0</property>
    <property name="shotcut:skipConvert">1</property>
    <property name="xml">was here</property>
    <property name="shotcut:hash">c692248f90303f36f281cd499d2ffd3e</property>
  </chain>
  <chain id="chain30" out="00:03:56.083">
    <property name="length">00:03:56.100</property>
    <property name="eof">pause</property>
    <property name="resource">/home/ondrej/postdoc/grants/resources/tasks-for-grants/contextual-inference/assets/sound/soundtrack/space_music1.mp3</property>
    <property name="mlt_service">avformat-novalidate</property>
    <property name="meta.media.nb_streams">2</property>
    <property name="meta.media.0.stream.type">audio</property>
    <property name="meta.media.0.codec.sample_fmt">fltp</property>
    <property name="meta.media.0.codec.sample_rate">44100</property>
    <property name="meta.media.0.codec.channels">2</property>
    <property name="meta.media.0.codec.layout">stereo</property>
    <property name="meta.media.0.codec.name">mp3float</property>
    <property name="meta.media.0.codec.long_name">MP3 (MPEG audio layer 3)</property>
    <property name="meta.media.0.codec.bit_rate">320000</property>
    <property name="meta.attr.0.stream.encoder.markup">LAME3.99r</property>
    <property name="meta.media.1.stream.type">video</property>
    <property name="meta.media.1.stream.frame_rate">90000</property>
    <property name="meta.media.1.stream.sample_aspect_ratio">0</property>
    <property name="meta.media.1.codec.width">500</property>
    <property name="meta.media.1.codec.height">500</property>
    <property name="meta.media.1.codec.rotate">0</property>
    <property name="meta.media.1.codec.pix_fmt">yuvj444p</property>
    <property name="meta.media.1.codec.sample_aspect_ratio">0</property>
    <property name="meta.media.1.codec.colorspace">601</property>
    <property name="meta.media.1.codec.name">mjpeg</property>
    <property name="meta.media.1.codec.long_name">MJPEG (Motion JPEG)</property>
    <property name="meta.media.1.codec.bit_rate">0</property>
    <property name="meta.attr.1.stream.comment.markup">Other</property>
    <property name="meta.attr.encoder.markup">LAME 64bits version 3.99.5 (http://lame.sf.net)</property>
    <property name="meta.attr.title.markup">The Magical</property>
    <property name="meta.attr.artist.markup">Hey Pluto!</property>
    <property name="meta.attr.TLEN.markup">236052</property>
    <property name="seekable">1</property>
    <property name="meta.media.sample_aspect_num">1</property>
    <property name="meta.media.sample_aspect_den">1</property>
    <property name="audio_index">0</property>
    <property name="video_index">1</property>
    <property name="creation_time">2025-01-07T17:42:39</property>
    <property name="vstream">0</property>
    <property name="meta.media.frame_rate_num">90000</property>
    <property name="meta.media.frame_rate_den">1</property>
    <property name="meta.media.colorspace">601</property>
    <property name="meta.media.color_trc">2</property>
    <property name="meta.media.has_b_frames">0</property>
    <property name="meta.media.width">500</property>
    <property name="meta.media.height">500</property>
    <property name="meta.media.aspect_ratio">1</property>
    <property name="meta.media.color_range">full</property>
    <property name="astream">0</property>
    <property name="shotcut:skipConvert">1</property>
    <property name="xml">was here</property>
    <property name="shotcut:hash">16c152aaee3612c1cc2080d72bc8c089</property>
    <property name="meta.media.top_field_first">0</property>
    <property name="meta.media.progressive">1</property>
    <property name="ignore_points">1</property>
    <property name="shotcut:caption">space_music1.mp3</property>
  </chain>
  <chain id="chain31" out="00:02:23.417">
    <property name="length">00:02:23.433</property>
    <property name="eof">pause</property>
    <property name="resource">/home/ondrej/postdoc/grants/resources/tasks-for-grants/contextual-inference/assets/sound/soundtrack/wanna-be-alone-distrxct-main-version-32603-02-23.mp3</property>
    <property name="mlt_service">avformat-novalidate</property>
    <property name="meta.media.nb_streams">2</property>
    <property name="meta.media.0.stream.type">audio</property>
    <property name="meta.media.0.codec.sample_fmt">fltp</property>
    <property name="meta.media.0.codec.sample_rate">44100</property>
    <property name="meta.media.0.codec.channels">2</property>
    <property name="meta.media.0.codec.layout">stereo</property>
    <property name="meta.media.0.codec.name">mp3float</property>
    <property name="meta.media.0.codec.long_name">MP3 (MPEG audio layer 3)</property>
    <property name="meta.media.0.codec.bit_rate">320000</property>
    <property name="meta.attr.0.stream.encoder.markup">LAME3.99r</property>
    <property name="meta.media.1.stream.type">video</property>
    <property name="meta.media.1.stream.frame_rate">90000</property>
    <property name="meta.media.1.stream.sample_aspect_ratio">0</property>
    <property name="meta.media.1.codec.width">500</property>
    <property name="meta.media.1.codec.height">500</property>
    <property name="meta.media.1.codec.rotate">0</property>
    <property name="meta.media.1.codec.pix_fmt">yuvj444p</property>
    <property name="meta.media.1.codec.sample_aspect_ratio">0</property>
    <property name="meta.media.1.codec.colorspace">601</property>
    <property name="meta.media.1.codec.name">mjpeg</property>
    <property name="meta.media.1.codec.long_name">MJPEG (Motion JPEG)</property>
    <property name="meta.media.1.codec.bit_rate">0</property>
    <property name="meta.attr.1.stream.comment.markup">Other</property>
    <property name="meta.attr.encoder.markup">LAME 64bits version 3.99.5 (http://lame.sf.net)</property>
    <property name="meta.attr.title.markup">Wanna Be Alone</property>
    <property name="meta.attr.artist.markup">DISTRXCT</property>
    <property name="meta.attr.TLEN.markup">143406</property>
    <property name="seekable">1</property>
    <property name="meta.media.sample_aspect_num">1</property>
    <property name="meta.media.sample_aspect_den">1</property>
    <property name="audio_index">0</property>
    <property name="video_index">1</property>
    <property name="creation_time">2025-02-06T09:24:22</property>
    <property name="vstream">0</property>
    <property name="meta.media.frame_rate_num">90000</property>
    <property name="meta.media.frame_rate_den">1</property>
    <property name="meta.media.colorspace">601</property>
    <property name="meta.media.color_trc">2</property>
    <property name="meta.media.has_b_frames">0</property>
    <property name="meta.media.width">500</property>
    <property name="meta.media.height">500</property>
    <property name="meta.media.aspect_ratio">1</property>
    <property name="meta.media.color_range">full</property>
    <property name="astream">0</property>
    <property name="shotcut:skipConvert">1</property>
    <property name="xml">was here</property>
    <property name="shotcut:hash">cdadbf5218fa62765c2ab8faa3b1934a</property>
    <property name="meta.media.top_field_first">0</property>
    <property name="meta.media.progressive">1</property>
    <property name="ignore_points">1</property>
    <property name="shotcut:caption">wanna-be-alone-distrxct-main-version-32603-02-23.mp3</property>
  </chain>
  <playlist id="main_bin" title="Shotcut version 25.01.25">
    <property name="shotcut:projectAudioChannels">2</property>
    <property name="shotcut:projectFolder">1</property>
    <property name="xml_retain">1</property>
    <entry producer="chain0" in="00:00:00.000" out="00:03:13.833"/>
    <entry producer="chain1" in="00:00:00.000" out="00:01:14.017"/>
    <entry producer="chain2" in="00:00:00.000" out="00:14:43.083"/>
    <entry producer="chain3" in="00:00:00.000" out="00:02:24.550"/>
    <entry producer="chain4" in="00:00:00.000" out="00:02:48.417"/>
    <entry producer="chain5" in="00:00:00.000" out="00:01:45.700"/>
    <entry producer="chain6" in="00:00:00.000" out="00:02:17.050"/>
    <entry producer="chain7" in="00:00:00.000" out="00:01:53.567"/>
    <entry producer="chain8" in="00:00:00.000" out="00:01:59.517"/>
    <entry producer="chain9" in="00:00:00.000" out="00:02:12.300"/>
    <entry producer="chain10" in="00:00:00.000" out="00:02:54.267"/>
    <entry producer="chain11" in="00:00:00.000" out="00:03:27.550"/>
    <entry producer="chain12" in="00:00:00.000" out="00:02:22.267"/>
    <entry producer="chain13" in="00:00:00.000" out="00:03:04.950"/>
    <entry producer="chain14" in="00:00:00.000" out="00:04:53.150"/>
    <entry producer="chain15" in="00:00:00.000" out="00:02:19.133"/>
    <entry producer="chain16" in="00:00:00.000" out="00:01:47.217"/>
    <entry producer="chain17" in="00:00:00.000" out="00:02:08.167"/>
    <entry producer="chain18" in="00:00:00.000" out="00:02:01.850"/>
    <entry producer="chain19" in="00:00:00.000" out="00:02:14.700"/>
    <entry producer="chain20" in="00:00:00.000" out="00:02:04.333"/>
    <entry producer="chain21" in="00:00:00.000" out="00:03:04.167"/>
    <entry producer="chain22" in="00:00:00.000" out="00:01:57.217"/>
    <entry producer="chain23" in="00:00:00.000" out="00:02:40.717"/>
    <entry producer="chain24" in="00:00:00.000" out="00:01:04.250"/>
    <entry producer="chain25" in="00:00:00.000" out="00:02:20.917"/>
    <entry producer="chain26" in="00:00:00.000" out="00:01:40.917"/>
    <entry producer="chain27" in="00:00:00.000" out="00:01:58.417"/>
    <entry producer="chain28" in="00:00:00.000" out="00:03:21.433"/>
    <entry producer="chain29" in="00:00:00.000" out="00:02:34.650"/>
    <entry producer="chain30" in="00:00:00.000" out="00:03:56.083"/>
    <entry producer="chain31" in="00:00:00.000" out="00:02:23.417"/>
  </playlist>
  <producer id="black" in="00:00:00.000" out="00:15:19.850">
    <property name="length">00:15:19.867</property>
    <property name="eof">pause</property>
    <property name="resource">0</property>
    <property name="aspect_ratio">1</property>
    <property name="mlt_service">color</property>
    <property name="mlt_image_format">rgba</property>
    <property name="set.test_audio">0</property>
  </producer>
  <playlist id="background">
    <entry producer="black" in="00:00:00.000" out="00:15:19.850"/>
  </playlist>
  <chain id="chain32" out="00:02:19.133">
    <property name="length">00:02:19.150</property>
    <property name="eof">pause</property>
    <property name="resource">/home/ondrej/postdoc/grants/resources/tasks-for-grants/contextual-inference/assets/sound/soundtrack/hot-tubes-abbynoise-main-version-20989-02-19.mp3</property>
    <property name="mlt_service">avformat-novalidate</property>
    <property name="meta.media.nb_streams">2</property>
    <property name="meta.media.0.stream.type">audio</property>
    <property name="meta.media.0.codec.sample_fmt">fltp</property>
    <property name="meta.media.0.codec.sample_rate">44100</property>
    <property name="meta.media.0.codec.channels">2</property>
    <property name="meta.media.0.codec.layout">stereo</property>
    <property name="meta.media.0.codec.name">mp3float</property>
    <property name="meta.media.0.codec.long_name">MP3 (MPEG audio layer 3)</property>
    <property name="meta.media.0.codec.bit_rate">320000</property>
    <property name="meta.attr.0.stream.encoder.markup">LAME3.99r</property>
    <property name="meta.media.1.stream.type">video</property>
    <property name="meta.media.1.stream.frame_rate">90000</property>
    <property name="meta.media.1.stream.sample_aspect_ratio">0</property>
    <property name="meta.media.1.codec.width">400</property>
    <property name="meta.media.1.codec.height">400</property>
    <property name="meta.media.1.codec.rotate">0</property>
    <property name="meta.media.1.codec.pix_fmt">yuvj444p</property>
    <property name="meta.media.1.codec.sample_aspect_ratio">0</property>
    <property name="meta.media.1.codec.colorspace">601</property>
    <property name="meta.media.1.codec.name">mjpeg</property>
    <property name="meta.media.1.codec.long_name">MJPEG (Motion JPEG)</property>
    <property name="meta.media.1.codec.bit_rate">0</property>
    <property name="meta.attr.1.stream.comment.markup">Other</property>
    <property name="meta.attr.encoder.markup">LAME 64bits version 3.99.5 (http://lame.sf.net)</property>
    <property name="meta.attr.title.markup">Hot Tubes</property>
    <property name="meta.attr.artist.markup">Abbynoise</property>
    <property name="meta.attr.TLEN.markup">139125</property>
    <property name="seekable">1</property>
    <property name="meta.media.sample_aspect_num">1</property>
    <property name="meta.media.sample_aspect_den">1</property>
    <property name="audio_index">0</property>
    <property name="video_index">-1</property>
    <property name="creation_time">2025-02-06T09:22:48</property>
    <property name="vstream">-1</property>
    <property name="meta.media.frame_rate_num">90000</property>
    <property name="meta.media.frame_rate_den">1</property>
    <property name="meta.media.colorspace">601</property>
    <property name="meta.media.color_trc">2</property>
    <property name="meta.media.has_b_frames">0</property>
    <property name="meta.media.width">400</property>
    <property name="meta.media.height">400</property>
    <property name="meta.media.aspect_ratio">1</property>
    <property name="meta.media.color_range">full</property>
    <property name="astream">0</property>
    <property name="shotcut:skipConvert">1</property>
    <property name="xml">was here</property>
    <property name="shotcut:hash">c613233c6f6dc4e1e7cb891d50b8ce77</property>
    <property name="meta.media.top_field_first">0</property>
    <property name="meta.media.progressive">1</property>
    <property name="ignore_points">0</property>
    <property name="shotcut:caption">hot-tubes-abbynoise-main-version-20989-02-19.mp3</property>
    <property name="shotcut:defaultAudioIndex">0</property>
    <filter id="filter0" in="00:00:00.567" out="00:02:19.133">
      <property name="window">75</property>
      <property name="max_gain">20dB</property>
      <property name="level">00:02:08.583=0;00:02:18.567=-60</property>
      <property name="mlt_service">volume</property>
      <property name="shotcut:filter">fadeOutVolume</property>
      <property name="shotcut:animOut">00:00:10.000</property>
    </filter>
  </chain>
  <chain id="chain33" out="00:04:53.150">
    <property name="length">00:04:53.167</property>
    <property name="eof">pause</property>
    <property name="resource">/home/ondrej/postdoc/grants/resources/tasks-for-grants/contextual-inference/assets/sound/soundtrack/game_music7.mp3</property>
    <property name="mlt_service">avformat-novalidate</property>
    <property name="meta.media.nb_streams">2</property>
    <property name="meta.media.0.stream.type">audio</property>
    <property name="meta.media.0.codec.sample_fmt">fltp</property>
    <property name="meta.media.0.codec.sample_rate">44100</property>
    <property name="meta.media.0.codec.channels">2</property>
    <property name="meta.media.0.codec.layout">stereo</property>
    <property name="meta.media.0.codec.name">mp3float</property>
    <property name="meta.media.0.codec.long_name">MP3 (MPEG audio layer 3)</property>
    <property name="meta.media.0.codec.bit_rate">320000</property>
    <property name="meta.attr.0.stream.encoder.markup">LAME3.99r</property>
    <property name="meta.media.1.stream.type">video</property>
    <property name="meta.media.1.stream.frame_rate">90000</property>
    <property name="meta.media.1.stream.sample_aspect_ratio">0</property>
    <property name="meta.media.1.codec.width">500</property>
    <property name="meta.media.1.codec.height">500</property>
    <property name="meta.media.1.codec.rotate">0</property>
    <property name="meta.media.1.codec.pix_fmt">yuvj444p</property>
    <property name="meta.media.1.codec.sample_aspect_ratio">1</property>
    <property name="meta.media.1.codec.colorspace">601</property>
    <property name="meta.media.1.codec.name">mjpeg</property>
    <property name="meta.media.1.codec.long_name">MJPEG (Motion JPEG)</property>
    <property name="meta.media.1.codec.bit_rate">0</property>
    <property name="meta.attr.1.stream.comment.markup">Other</property>
    <property name="meta.attr.encoder.markup">LAME 64bits version 3.99.5 (http://lame.sf.net)</property>
    <property name="meta.attr.title.markup">Solar Storm</property>
    <property name="meta.attr.artist.markup">HLFMN</property>
    <property name="meta.attr.TLEN.markup">293124</property>
    <property name="seekable">1</property>
    <property name="meta.media.sample_aspect_num">1</property>
    <property name="meta.media.sample_aspect_den">1</property>
    <property name="audio_index">0</property>
    <property name="video_index">-1</property>
    <property name="creation_time">2025-01-16T22:10:50</property>
    <property name="vstream">-1</property>
    <property name="meta.media.frame_rate_num">90000</property>
    <property name="meta.media.frame_rate_den">1</property>
    <property name="meta.media.colorspace">601</property>
    <property name="meta.media.color_trc">2</property>
    <property name="meta.media.has_b_frames">0</property>
    <property name="meta.media.width">500</property>
    <property name="meta.media.height">500</property>
    <property name="meta.media.aspect_ratio">1</property>
    <property name="meta.media.color_range">full</property>
    <property name="astream">0</property>
    <property name="shotcut:skipConvert">1</property>
    <property name="xml">was here</property>
    <property name="shotcut:hash">51553537f59c3efa86b280a3fda1130d</property>
    <property name="meta.media.top_field_first">0</property>
    <property name="meta.media.progressive">1</property>
    <property name="ignore_points">0</property>
    <property name="shotcut:caption">game_music7.mp3</property>
    <property name="shotcut:defaultAudioIndex">0</property>
    <filter id="filter1" out="00:04:53.150">
      <property name="window">75</property>
      <property name="max_gain">20dB</property>
      <property name="level">00:04:43.167=0;00:04:53.150=-60</property>
      <property name="mlt_service">volume</property>
      <property name="shotcut:filter">fadeOutVolume</property>
      <property name="shotcut:animOut">00:00:10.000</property>
    </filter>
  </chain>
  <tractor id="tractor0" in="00:00:00.000" out="00:00:00.000">
    <property name="shotcut:transition">lumaMix</property>
    <track producer="chain32" in="00:02:19.133" out="00:02:19.133"/>
    <track producer="chain33" in="00:00:00.000" out="00:00:00.000"/>
    <transition id="transition0">
      <property name="a_track">0</property>
      <property name="b_track">1</property>
      <property name="factory">loader</property>
      <property name="mlt_service">luma</property>
      <property name="alpha_over">1</property>
      <property name="fix_background_alpha">1</property>
    </transition>
    <transition id="transition1">
      <property name="a_track">0</property>
      <property name="b_track">1</property>
      <property name="start">-1</property>
      <property name="accepts_blanks">1</property>
      <property name="mlt_service">mix</property>
    </transition>
  </tractor>
  <chain id="chain34" out="00:01:47.217">
    <property name="length">00:01:47.233</property>
    <property name="eof">pause</property>
    <property name="resource">/home/ondrej/postdoc/grants/resources/tasks-for-grants/contextual-inference/assets/sound/soundtrack/hype-hero-pecan-pie-main-version-01-47-9301.mp3</property>
    <property name="mlt_service">avformat-novalidate</property>
    <property name="meta.media.nb_streams">2</property>
    <property name="meta.media.0.stream.type">audio</property>
    <property name="meta.media.0.codec.sample_fmt">fltp</property>
    <property name="meta.media.0.codec.sample_rate">44100</property>
    <property name="meta.media.0.codec.channels">2</property>
    <property name="meta.media.0.codec.layout">stereo</property>
    <property name="meta.media.0.codec.name">mp3float</property>
    <property name="meta.media.0.codec.long_name">MP3 (MPEG audio layer 3)</property>
    <property name="meta.media.0.codec.bit_rate">320000</property>
    <property name="meta.attr.0.stream.encoder.markup">LAME3.99r</property>
    <property name="meta.media.1.stream.type">video</property>
    <property name="meta.media.1.stream.frame_rate">90000</property>
    <property name="meta.media.1.stream.sample_aspect_ratio">0</property>
    <property name="meta.media.1.codec.width">400</property>
    <property name="meta.media.1.codec.height">400</property>
    <property name="meta.media.1.codec.rotate">0</property>
    <property name="meta.media.1.codec.pix_fmt">yuvj444p</property>
    <property name="meta.media.1.codec.sample_aspect_ratio">0</property>
    <property name="meta.media.1.codec.colorspace">601</property>
    <property name="meta.media.1.codec.name">mjpeg</property>
    <property name="meta.media.1.codec.long_name">MJPEG (Motion JPEG)</property>
    <property name="meta.media.1.codec.bit_rate">0</property>
    <property name="meta.attr.1.stream.comment.markup">Other</property>
    <property name="meta.attr.encoder.markup">LAME 64bits version 3.99.5 (http://lame.sf.net)</property>
    <property name="meta.attr.title.markup">Hype Hero</property>
    <property name="meta.attr.artist.markup">Pecan Pie</property>
    <property name="meta.attr.album.markup">Uppbeat</property>
    <property name="meta.attr.TLEN.markup">107200</property>
    <property name="seekable">1</property>
    <property name="meta.media.sample_aspect_num">1</property>
    <property name="meta.media.sample_aspect_den">1</property>
    <property name="audio_index">0</property>
    <property name="video_index">-1</property>
    <property name="creation_time">2025-02-06T09:29:07</property>
    <property name="vstream">-1</property>
    <property name="meta.media.frame_rate_num">90000</property>
    <property name="meta.media.frame_rate_den">1</property>
    <property name="meta.media.colorspace">601</property>
    <property name="meta.media.color_trc">2</property>
    <property name="meta.media.has_b_frames">0</property>
    <property name="meta.media.width">400</property>
    <property name="meta.media.height">400</property>
    <property name="meta.media.aspect_ratio">1</property>
    <property name="meta.media.color_range">full</property>
    <property name="astream">0</property>
    <property name="shotcut:skipConvert">1</property>
    <property name="xml">was here</property>
    <property name="shotcut:hash">7297208bef5e0c5c2185d054b1fd8822</property>
    <property name="meta.media.top_field_first">0</property>
    <property name="meta.media.progressive">1</property>
    <property name="ignore_points">0</property>
    <property name="shotcut:caption">hype-hero-pecan-pie-main-version-01-47-9301.mp3</property>
    <property name="shotcut:defaultAudioIndex">0</property>
    <filter id="filter2" out="00:01:46.983">
      <property name="window">75</property>
      <property name="max_gain">20dB</property>
      <property name="level">00:01:37.000=0;00:01:46.983=-60</property>
      <property name="mlt_service">volume</property>
      <property name="shotcut:filter">fadeOutVolume</property>
      <property name="shotcut:animOut">00:00:10.000</property>
    </filter>
  </chain>
  <tractor id="tractor1" in="00:00:00.000" out="00:00:00.217">
    <property name="shotcut:transition">lumaMix</property>
    <track producer="chain33" in="00:04:52.933" out="00:04:53.150"/>
    <track producer="chain34" in="00:00:00.000" out="00:00:00.217"/>
    <transition id="transition2" out="00:00:00.217">
      <property name="a_track">0</property>
      <property name="b_track">1</property>
      <property name="factory">loader</property>
      <property name="mlt_service">luma</property>
      <property name="alpha_over">1</property>
      <property name="fix_background_alpha">1</property>
    </transition>
    <transition id="transition3" out="00:00:00.217">
      <property name="a_track">0</property>
      <property name="b_track">1</property>
      <property name="start">-1</property>
      <property name="accepts_blanks">1</property>
      <property name="mlt_service">mix</property>
    </transition>
  </tractor>
  <chain id="chain35" out="00:02:54.267">
    <property name="length">00:02:54.283</property>
    <property name="eof">pause</property>
    <property name="resource">/home/ondrej/postdoc/grants/resources/tasks-for-grants/contextual-inference/assets/sound/soundtrack/game_music3.mp3</property>
    <property name="mlt_service">avformat-novalidate</property>
    <property name="meta.media.nb_streams">2</property>
    <property name="meta.media.0.stream.type">audio</property>
    <property name="meta.media.0.codec.sample_fmt">fltp</property>
    <property name="meta.media.0.codec.sample_rate">44100</property>
    <property name="meta.media.0.codec.channels">2</property>
    <property name="meta.media.0.codec.layout">stereo</property>
    <property name="meta.media.0.codec.name">mp3float</property>
    <property name="meta.media.0.codec.long_name">MP3 (MPEG audio layer 3)</property>
    <property name="meta.media.0.codec.bit_rate">320000</property>
    <property name="meta.attr.0.stream.encoder.markup">LAME3.99r</property>
    <property name="meta.media.1.stream.type">video</property>
    <property name="meta.media.1.stream.frame_rate">90000</property>
    <property name="meta.media.1.stream.sample_aspect_ratio">0</property>
    <property name="meta.media.1.codec.width">360</property>
    <property name="meta.media.1.codec.height">360</property>
    <property name="meta.media.1.codec.rotate">0</property>
    <property name="meta.media.1.codec.pix_fmt">yuvj444p</property>
    <property name="meta.media.1.codec.sample_aspect_ratio">0</property>
    <property name="meta.media.1.codec.colorspace">601</property>
    <property name="meta.media.1.codec.name">mjpeg</property>
    <property name="meta.media.1.codec.long_name">MJPEG (Motion JPEG)</property>
    <property name="meta.media.1.codec.bit_rate">0</property>
    <property name="meta.attr.1.stream.comment.markup">Other</property>
    <property name="meta.attr.encoder.markup">LAME 64bits version 3.99.5 (http://lame.sf.net)</property>
    <property name="meta.attr.title.markup">Road Trip</property>
    <property name="meta.attr.artist.markup">Yeti Music</property>
    <property name="meta.attr.album.markup">Uppbeat</property>
    <property name="meta.attr.TLEN.markup">174242</property>
    <property name="seekable">1</property>
    <property name="meta.media.sample_aspect_num">1</property>
    <property name="meta.media.sample_aspect_den">1</property>
    <property name="audio_index">0</property>
    <property name="video_index">1</property>
    <property name="creation_time">2025-01-07T17:47:43</property>
    <property name="vstream">0</property>
    <property name="meta.media.frame_rate_num">90000</property>
    <property name="meta.media.frame_rate_den">1</property>
    <property name="meta.media.colorspace">601</property>
    <property name="meta.media.color_trc">2</property>
    <property name="meta.media.has_b_frames">0</property>
    <property name="meta.media.width">360</property>
    <property name="meta.media.height">360</property>
    <property name="meta.media.aspect_ratio">1</property>
    <property name="meta.media.color_range">full</property>
    <property name="astream">0</property>
    <property name="shotcut:skipConvert">1</property>
    <property name="xml">was here</property>
    <property name="shotcut:hash">cf0c9e2a99de1596af73fcadd3cc76ac</property>
    <property name="meta.media.top_field_first">0</property>
    <property name="meta.media.progressive">1</property>
    <property name="ignore_points">0</property>
    <property name="shotcut:caption">game_music3.mp3</property>
  </chain>
  <chain id="chain36" out="00:03:27.550">
    <property name="length">00:03:27.567</property>
    <property name="eof">pause</property>
    <property name="resource">/home/ondrej/postdoc/grants/resources/tasks-for-grants/contextual-inference/assets/sound/soundtrack/game_music4.mp3</property>
    <property name="mlt_service">avformat-novalidate</property>
    <property name="meta.media.nb_streams">2</property>
    <property name="meta.media.0.stream.type">audio</property>
    <property name="meta.media.0.codec.sample_fmt">fltp</property>
    <property name="meta.media.0.codec.sample_rate">44100</property>
    <property name="meta.media.0.codec.channels">2</property>
    <property name="meta.media.0.codec.layout">stereo</property>
    <property name="meta.media.0.codec.name">mp3float</property>
    <property name="meta.media.0.codec.long_name">MP3 (MPEG audio layer 3)</property>
    <property name="meta.media.0.codec.bit_rate">320000</property>
    <property name="meta.attr.0.stream.encoder.markup">LAME3.99r</property>
    <property name="meta.media.1.stream.type">video</property>
    <property name="meta.media.1.stream.frame_rate">90000</property>
    <property name="meta.media.1.stream.sample_aspect_ratio">0</property>
    <property name="meta.media.1.codec.width">500</property>
    <property name="meta.media.1.codec.height">500</property>
    <property name="meta.media.1.codec.rotate">0</property>
    <property name="meta.media.1.codec.pix_fmt">yuvj444p</property>
    <property name="meta.media.1.codec.sample_aspect_ratio">0</property>
    <property name="meta.media.1.codec.colorspace">601</property>
    <property name="meta.media.1.codec.name">mjpeg</property>
    <property name="meta.media.1.codec.long_name">MJPEG (Motion JPEG)</property>
    <property name="meta.media.1.codec.bit_rate">0</property>
    <property name="meta.attr.1.stream.comment.markup">Other</property>
    <property name="meta.attr.encoder.markup">LAME 64bits version 3.99.5 (http://lame.sf.net)</property>
    <property name="meta.attr.title.markup">Miami 1987</property>
    <property name="meta.attr.artist.markup">Hey Pluto!</property>
    <property name="meta.attr.TLEN.markup">207529</property>
    <property name="seekable">1</property>
    <property name="meta.media.sample_aspect_num">1</property>
    <property name="meta.media.sample_aspect_den">1</property>
    <property name="audio_index">0</property>
    <property name="video_index">1</property>
    <property name="creation_time">2025-01-07T17:49:17</property>
    <property name="vstream">0</property>
    <property name="meta.media.frame_rate_num">90000</property>
    <property name="meta.media.frame_rate_den">1</property>
    <property name="meta.media.colorspace">601</property>
    <property name="meta.media.color_trc">2</property>
    <property name="meta.media.has_b_frames">0</property>
    <property name="meta.media.width">500</property>
    <property name="meta.media.height">500</property>
    <property name="meta.media.aspect_ratio">1</property>
    <property name="meta.media.color_range">full</property>
    <property name="astream">0</property>
    <property name="shotcut:skipConvert">1</property>
    <property name="xml">was here</property>
    <property name="shotcut:hash">ebef906061e9feb5fbdb68c0ebedb486</property>
    <property name="meta.media.top_field_first">0</property>
    <property name="meta.media.progressive">1</property>
    <property name="ignore_points">1</property>
    <property name="shotcut:caption">game_music4.mp3</property>
  </chain>
  <playlist id="playlist0">
    <property name="shotcut:audio">1</property>
    <property name="shotcut:name">A1</property>
    <entry producer="chain32" in="00:00:00.567" out="00:02:19.117"/>
    <entry producer="tractor0" in="00:00:00.000" out="00:00:00.000"/>
    <entry producer="chain33" in="00:00:00.017" out="00:04:52.917"/>
    <entry producer="tractor1" in="00:00:00.000" out="00:00:00.217"/>
    <entry producer="chain34" in="00:00:00.233" out="00:01:46.983"/>
    <entry producer="chain35" in="00:00:00.000" out="00:02:53.783"/>
    <entry producer="chain36" in="00:00:00.000" out="00:03:27.550"/>
  </playlist>
  <tractor id="tractor2" title="Shotcut version 25.01.25" in="00:00:00.000" out="00:15:19.850">
    <property name="shotcut">1</property>
    <property name="shotcut:scaleFactor">0.069319</property>
    <property name="shotcut:projectAudioChannels">2</property>
    <property name="shotcut:projectFolder">1</property>
    <track producer="background"/>
    <track producer="playlist0" hide="video"/>
    <transition id="transition4">
      <property name="a_track">0</property>
      <property name="b_track">1</property>
      <property name="mlt_service">mix</property>
      <property name="always_active">1</property>
      <property name="sum">1</property>
    </transition>
  </tractor>
</mlt>
